<?xml version="1.0" standalone="no"?>
<!DOCTYPE svg PUBLIC "-//W3C//DTD SVG 1.1//EN" "http://www.w3.org/Graphics/SVG/1.1/DTD/svg11.dtd" >
<svg xmlns="http://www.w3.org/2000/svg">
<metadata>Generated by IcoMoon</metadata>
<defs>
<font id="icomoon" horiz-adv-x="1024">
<font-face units-per-em="1024" ascent="960" descent="-64" />
<missing-glyph horiz-adv-x="1024" />
<glyph unicode="&#x20;" horiz-adv-x="512" d="" />
<glyph unicode="&#xe900;" glyph-name="search_icn" d="M990 27.6l-235.6 235.6c58.4 71.2 93.6 162.4 93.6 261.8 0 228-185 413-413 413-228.2 0-413-185-413-413s184.8-413 413-413c99.4 0 190.4 35 261.6 93.4l235.6-235.4c16-16 41.8-16 57.8 0 16 15.8 16 41.8 0 57.6zM435 194.2c-182.6 0-331 148.4-331 330.8s148.4 331 331 331c182.4 0 331-148.6 331-331s-148.6-330.8-331-330.8z" />
<glyph unicode="&#xe901;" glyph-name="pinterest-logo" d="M905.592 675.263c-27.967 202.368-229.631 305.407-444.799 281.28-170.112-19.072-339.713-156.609-346.753-353.279-4.288-120.063 29.76-210.111 144-235.457 49.472 87.551-15.935 106.688-26.175 170.112-41.921 259.2 299.007 436.224 477.568 255.103 123.648-125.44 42.175-511.103-156.992-470.976-190.784 38.272 93.439 345.279-58.816 405.504-123.777 49.024-189.504-149.76-130.817-248.577-34.432-169.921-108.543-329.919-78.528-542.975 97.279 70.656 130.112 205.759 156.992 346.751 48.896-29.76 75.073-60.544 137.409-65.344 229.888-17.853 358.463 229.507 326.911 457.858z" />
<glyph unicode="&#xe902;" glyph-name="google" d="M576 499.2v-128h302.080c-30.72-179.2-174.080-307.2-353.28-307.2-209.92 0-384 174.080-384 384s174.080 384 384 384c107.52 0 199.68-46.080 266.24-117.76l92.16 92.16c-92.16 92.16-215.040 153.6-358.4 153.6-281.6 0-512-230.4-512-512s230.4-512 512-512 486.4 230.4 486.4 512v51.2h-435.2z" />
<glyph unicode="&#xe903;" glyph-name="youtube" d="M984.087 746.463c-36.963 43.94-105.208 61.863-235.54 61.863h-473.105c-133.315 0-202.716-19.079-239.54-65.86-35.903-45.611-35.903-112.815-35.903-205.827v-177.281c0-180.194 42.598-271.684 275.443-271.684h473.108c113.023 0 175.652 15.816 216.17 54.592 41.551 39.764 59.28 104.689 59.28 217.091v177.281c0 98.089-2.778 165.69-39.913 209.824zM657.411 423.523l-214.835-112.28c-4.803-2.51-10.055-3.756-15.301-3.756-5.939 0-11.865 1.599-17.114 4.776-9.883 5.989-15.918 16.701-15.918 28.256v223.84c0 11.535 6.018 22.237 15.882 28.229 9.867 5.992 22.138 6.402 32.375 1.083l214.835-111.557c10.93-5.675 17.794-16.959 17.811-29.27 0.013-12.321-6.821-23.621-17.735-29.323z" />
<glyph unicode="&#xe904;" glyph-name="camera" d="M0 609.228v-451.814c0-68.963 56.007-124.97 124.97-124.97h774.060c68.963 0 124.97 56.007 124.97 124.97v451.814c0 65.62-53.29 118.909-118.909 118.909h-166.348l-3.971 17.345c-16.091 69.59-77.322 118.073-148.793 118.073h-148.167c-71.262 0-132.493-48.483-148.793-118.073l-3.971-17.345h-166.139c-65.62 0-118.909-53.499-118.909-118.909zM305.528 676.937c11.912 0 22.152 8.15 24.869 19.853l8.568 37.198c10.867 46.184 51.409 78.367 98.847 78.367h148.167c47.438 0 87.98-32.183 98.847-78.367l8.568-37.198c2.717-11.494 12.957-19.853 24.869-19.853h186.619c37.407 0 67.709-30.302 67.709-67.709v-451.814c0-40.751-33.019-73.77-73.77-73.77h-773.851c-40.751 0-73.77 33.019-73.77 73.77v451.814c0 37.407 30.302 67.709 67.709 67.709h186.619zM207.517 567.641c0-18.928-15.344-34.273-34.273-34.273s-34.273 15.344-34.273 34.273c0 18.928 15.344 34.273 34.273 34.273s34.273-15.344 34.273-34.273zM512 163.892c118.491 0 215.040 96.549 215.040 215.040s-96.549 215.040-215.040 215.040-215.040-96.34-215.040-215.040 96.549-215.040 215.040-215.040zM512 542.772c90.279 0 163.84-73.561 163.84-163.84s-73.561-163.84-163.84-163.84-163.84 73.561-163.84 163.84 73.561 163.84 163.84 163.84z" />
<glyph unicode="&#xe905;" glyph-name="multiply" d="M1024 913.461l-46.539 46.539-465.461-465.461-465.461 465.461-46.539-46.539 465.461-465.461-465.461-465.461 46.539-46.539 465.461 465.461 465.461-465.461 46.539 46.539-465.461 465.461z" />
<glyph unicode="&#xe906;" glyph-name="down-arrow" d="M962.878 685.346c-12.701 12.701-33.34 12.701-46.040 0l-404.837-405.631-405.631 405.631c-12.701 12.701-33.34 12.701-46.040 0s-12.701-33.34 0-46.040l427.857-427.857c6.35-6.35 14.288-9.526 23.020-9.526 7.938 0 16.67 3.175 23.020 9.526l427.857 427.857c13.495 12.701 13.495 33.34 0.794 46.040z" />
<glyph unicode="&#xe907;" glyph-name="menu" d="M992.001 640h-959.999c-17.665 0-31.999 14.337-31.999 31.999 0 17.665 14.337 31.999 31.999 31.999h959.999c17.665 0 31.999-14.337 31.999-31.999s-14.337-31.999-31.999-31.999zM32.002 479.999h959.999c17.665 0 31.999-14.337 31.999-31.999s-14.337-31.999-31.999-31.999h-959.999c-17.665 0-31.999 14.337-31.999 31.999s14.334 31.999 31.999 31.999zM32.002 256h639.999c17.665 0 31.999-14.337 31.999-31.999 0-17.665-14.337-31.999-31.999-31.999h-639.999c-17.665 0-31.999 14.337-31.999 31.999-0.003 17.665 14.334 31.999 31.999 31.999z" />
<glyph unicode="&#xe908;" glyph-name="instagram" d="M718.945 960h-413.89c-168.208 0-305.055-136.847-305.055-305.055v-413.89c0-168.208 136.847-305.055 305.055-305.055h413.89c168.208 0 305.055 136.847 305.055 305.055v413.89c-0.002 168.208-136.849 305.055-305.055 305.055zM920.986 241.055c0-111.583-90.458-202.041-202.041-202.041h-413.89c-111.583 0-202.041 90.458-202.041 202.041v413.89c0 111.585 90.458 202.041 202.041 202.041h413.89c111.583 0 202.041-90.456 202.041-202.041v-413.89zM512 712.843c-146.035 0-264.843-118.808-264.843-264.841s118.808-264.843 264.843-264.843 264.843 118.808 264.843 264.843-118.808 264.841-264.843 264.841zM512 286.172c-89.376 0-161.828 72.452-161.828 161.828s72.454 161.828 161.828 161.828c89.376 0 161.828-72.452 161.828-161.828 0-89.374-72.454-161.828-161.828-161.828zM840.818 710.854c0-35.049-28.413-63.462-63.462-63.462s-63.462 28.413-63.462 63.462c0 35.049 28.413 63.462 63.462 63.462s63.462-28.413 63.462-63.462z" />
<glyph unicode="&#xe909;" glyph-name="add" d="M1024 472.381h-487.619v487.619h-48.762v-487.619h-487.619v-48.762h487.619v-487.619h48.762v487.619h487.619z" />
<glyph unicode="&#xe90a;" d="M226.94 341.184l-35.644-133.064-130.278-2.756c-38.934 72.214-61.018 154.836-61.018 242.636 0 84.902 20.648 164.966 57.248 235.464h0.028l115.984-21.264 50.808-115.288c-10.634-31.002-16.43-64.282-16.43-98.912 0.004-37.584 6.812-73.594 19.302-106.816z" />
<glyph unicode="&#xe90b;" d="M1015.054 543.648c5.88-30.972 8.946-62.958 8.946-95.648 0-36.656-3.854-72.412-11.196-106.902-24.924-117.366-90.050-219.85-180.268-292.374l-0.028 0.028-146.088 7.454-20.676 129.070c59.864 35.108 106.648 90.050 131.292 155.822h-273.78v202.55h491.798z" />
<glyph unicode="&#xe90c;" d="M832.506 48.752l0.028-0.028c-87.742-70.526-199.202-112.724-320.534-112.724-194.982 0-364.504 108.982-450.982 269.362l165.922 135.82c43.238-115.396 154.556-197.542 285.060-197.542 56.094 0 108.646 15.164 153.74 41.636l166.766-136.524z" />
<glyph unicode="&#xe90d;" d="M838.808 842.128l-165.866-135.792c-46.67 29.172-101.838 46.024-160.942 46.024-133.458 0-246.858-85.914-287.93-205.448l-166.822 136.552c85.212 164.29 256.872 276.536 454.752 276.536 124.23 0 238.136-44.252 326.808-117.872z" />
<glyph unicode="&#xe90e;" d="M1023.991 447.991c0-282.765-229.226-511.991-511.991-511.991s-511.991 229.226-511.991 511.991c0 282.765 229.226 511.991 511.991 511.991s511.991-229.226 511.991-511.991z" />
<glyph unicode="&#xe90f;" d="M553.326 274.382c-38.706 2.994-54.97 22.187-85.326 40.614-16.684-87.534-37.073-171.445-97.464-215.281-18.664 132.301 27.362 231.673 48.737 337.15-36.434 61.332 4.381 184.78 81.228 154.36 94.58-37.401-81.885-228.049 36.58-251.861 123.676-24.861 174.165 214.597 97.464 292.484-110.817 112.45-322.566 2.555-296.527-158.422 6.343-39.354 47.012-51.301 16.246-105.605-70.924 15.707-92.080 71.645-89.36 146.219 4.39 122.070 109.685 207.542 215.299 219.37 133.57 14.95 258.934-49.047 276.239-174.685 19.467-141.802-60.3-295.368-203.115-284.343v0z" />
<glyph unicode="&#xe910;" glyph-name="youtube-1" d="M984.088 746.462c-36.964 43.94-105.208 61.862-235.54 61.862h-473.106c-133.314 0-202.716-19.080-239.54-65.86-35.902-45.608-35.902-112.812-35.902-205.826v-177.28c0-180.194 42.598-271.684 275.442-271.684h473.108c113.024 0 175.652 15.816 216.17 54.592 41.552 39.764 59.28 104.69 59.28 217.092v177.28c0 98.090-2.778 165.69-39.912 209.824zM657.412 423.524l-214.836-112.28c-4.802-2.51-10.056-3.756-15.3-3.756-5.94 0-11.866 1.598-17.114 4.776-9.884 5.988-15.918 16.702-15.918 28.256v223.84c0 11.534 6.018 22.238 15.882 28.23 9.866 5.992 22.138 6.402 32.374 1.084l214.836-111.556c10.93-5.674 17.794-16.958 17.81-29.27 0.014-12.324-6.82-23.624-17.734-29.324z" />
<glyph unicode="&#xe911;" glyph-name="bill_payment" d="M416.113 330.281l137.011-41.39c-0.244-1.077-0.547-2.007-0.923-2.898l0.042 0.113c-3.665-9.766-12.637-16.721-23.312-17.384l-0.076-0.004c-22.741-2.531-49.108-3.975-75.812-3.975-15.694 0-31.272 0.499-46.719 1.481l2.109-0.107c-0.585 0.058-1.264 0.092-1.951 0.092-11.503 0-20.828-9.325-20.828-20.828 0-11.267 8.947-20.445 20.124-20.816l0.034-0.001c14.066-0.953 30.489-1.497 47.038-1.497 29.117 0 57.842 1.682 86.081 4.955l-3.44-0.324c34.857 5.033 61.342 34.702 61.342 70.558 0 2.769-0.158 5.502-0.465 8.188l0.031-0.328c-0.834 8.593-6.754 15.608-14.679 18.045l-0.148 0.039-153.416 46.264c-75.776 22.774-158.822-19.313-162.324-21.053-0.472-0.171-0.879-0.407-1.236-0.702l0.007 0.006-152.699-91.996c-6.117-3.712-10.142-10.337-10.142-17.901 0-3.979 1.114-7.698 3.046-10.863l-0.052 0.092c3.772-6.085 10.408-10.081 17.979-10.097h0.002c3.986 0.061 7.705 1.148 10.922 3.007l-0.109-0.058 152.023 91.3c6.615 3.482 73.462 35.287 130.54 18.084zM939.028 365.24c-13.946 24.538-39.908 40.82-69.674 40.82-13.455 0-26.134-3.327-37.257-9.204l0.435 0.21c-53.76-23.818-167.383-78.254-168.612-78.766-7.030-3.453-11.784-10.561-11.784-18.78 0-11.519 9.338-20.857 20.857-20.857 3.3 0 6.421 0.766 9.195 2.131l-0.123-0.054c1.229 0.512 114.156 54.784 167.383 78.254 5.597 3.215 12.305 5.111 19.456 5.111s13.859-1.896 19.649-5.213l-0.193 0.102c0.348-0.184 0.532-0.348 0.881-0.532l-284.672-207.79c-15.498-11.346-34.939-18.155-55.97-18.155-5.133 0-10.171 0.406-15.085 1.186l0.542-0.071-253.952 40.346c-0.97 0.155-2.088 0.243-3.227 0.243-5.14 0-9.861-1.798-13.566-4.801l0.040 0.032-64.184-53.412c-4.601-3.825-7.509-9.551-7.509-15.955 0-5.14 1.873-9.842 4.973-13.462l-0.023 0.028c3.898-4.553 9.636-7.432 16.049-7.475h0.007c5.128 0.002 9.825 1.843 13.467 4.901l-0.032-0.026 56.893 47.309 244.695-38.912c6.372-1.047 13.717-1.646 21.2-1.646 30.34 0 58.383 9.835 81.114 26.491l-0.385-0.269 303.657 221.43c5.079 3.869 8.325 9.92 8.325 16.729 0 3.689-0.952 7.155-2.624 10.166l0.055-0.107zM551.035 389.222c67.025 0.198 121.283 54.578 121.283 121.63 0 67.175-54.456 121.631-121.631 121.631s-121.631-54.456-121.631-121.631c0-33.572 13.601-63.967 35.594-85.975l-0.001 0.001c22.070-22.032 52.539-35.656 86.19-35.656 0.069 0 0.137 0 0.206 0h-0.011zM494.305 567.296c14.481 14.506 34.5 23.48 56.615 23.48 44.18 0 79.995-35.815 79.995-79.995s-35.815-79.995-79.995-79.995c-22.115 0-42.134 8.974-56.614 23.479l-0.001 0.001c-14.506 14.444-23.482 34.431-23.482 56.515s8.976 42.071 23.479 56.512l0.003 0.003zM694.272 626.934c52.343 0.125 94.726 42.585 94.726 94.945 0 52.437-42.508 94.945-94.945 94.945s-94.945-42.508-94.945-94.945c0-26.207 10.618-49.933 27.786-67.113l-0.001 0.001c17.169-17.195 40.901-27.833 67.118-27.833 0.092 0 0.184 0 0.276 0h-0.014zM656.568 759.439c9.636 9.636 22.948 15.596 37.652 15.596 29.408 0 53.248-23.84 53.248-53.248s-23.84-53.248-53.248-53.248c-14.704 0-28.016 5.96-37.652 15.596v0c-9.618 9.633-15.566 22.933-15.566 37.622 0 14.72 5.973 28.044 15.626 37.682l0.001 0.001z" />
<glyph unicode="&#xe912;" glyph-name="calender" d="M747.192 793.313v43.807h-47.985v-43.807h-374.415v43.807h-47.985v-43.807h-174.408v-734.433h819.2v734.433h-174.408zM873.513 105.984h-723.026v486.134h722.944v-486.134zM873.513 639.181h-723.026v107.151h126.341v-43.766h47.985v43.766h374.395v-43.766h47.985v43.766h126.321v-107.254zM348.324 530.719h66.048v-46.961h-66.048v46.961zM477.553 530.719h66.048v-46.961h-66.048v46.961zM606.781 530.719h66.048v-46.961h-66.028v46.961zM736.010 530.719h66.048v-46.961h-66.028v46.961zM348.324 423.649h66.048v-46.981h-66.048v46.981zM221.942 423.649h66.048v-46.981h-66.048v46.981zM477.573 423.649h66.048v-46.981h-66.068v46.981zM606.802 423.649h66.048v-46.981h-66.048v46.981zM736.031 423.649h66.048v-46.981h-66.048v46.981zM348.324 316.559h66.048v-46.961h-66.048v46.961zM221.942 316.559h66.048v-46.961h-66.048v46.961zM477.573 316.559h66.048v-46.961h-66.068v46.961zM606.802 316.559h66.048v-46.961h-66.048v46.961zM736.031 316.559h66.048v-46.961h-66.048v46.961zM348.324 209.49h66.048v-46.981h-66.048v46.981zM221.942 209.49h66.048v-46.981h-66.048v46.981zM477.573 209.49h66.048v-46.981h-66.068v46.981zM606.802 209.49h66.048v-46.981h-66.048v46.981zM736.031 209.49h66.048v-46.981h-66.048v46.981z" />
<glyph unicode="&#xe913;" glyph-name="campaign" d="M737.751 509.665v40.96h-533.094v-102.175c0.142-94.85 49.634-178.11 124.169-225.494l1.087-0.646h-166.072v-20.48c0.012-56.36 45.645-102.058 101.979-102.175h410.717c56.346 0.117 101.979 45.815 101.99 102.174v20.481h-166.052c18.927 12.121 35.342 25.64 49.989 40.872l0.085 0.088h54.784c78.996 0.534 142.828 64.696 142.828 143.767 0 0.16 0 0.319-0.001 0.478v-0.025 102.175h-122.409zM734.249 181.371c-8.634-24.023-31.195-40.903-57.706-40.96h-410.692c-26.518 0.057-49.078 16.937-57.578 40.532l-0.134 0.428h526.111zM471.204 222.331c-124.674 0.245-225.658 101.322-225.751 226.008v61.326h451.502v-61.297c-0.035-124.743-101.038-225.884-225.726-226.14h-0.025zM819.364 407.593c0.001-0.19 0.002-0.414 0.002-0.639 0-56.509-45.555-102.379-101.944-102.887h-22.33c26.73 40.609 42.64 90.405 42.64 143.917 0 0.164 0 0.328 0 0.493v-0.025 20.48h81.592v-61.297zM381.542 796.385l-22.63-34.017c7.754-5.214 12.787-13.954 12.787-23.869s-5.033-18.656-12.685-23.804l-0.102-0.065c-18.772-12.945-30.918-34.33-30.918-58.552s12.146-45.608 30.681-58.397l0.238-0.155 22.63 34.017c-7.776 5.496-12.792 14.45-12.792 24.576s5.016 19.080 12.698 24.513l0.094 0.063c18.725 12.676 30.87 33.843 30.87 57.846s-12.145 45.17-30.625 57.689l-0.245 0.156zM483.533 796.385l-22.63-34.017c7.754-5.214 12.787-13.954 12.787-23.869s-5.033-18.656-12.685-23.804l-0.102-0.065c-18.772-12.945-30.918-34.33-30.918-58.552s12.146-45.608 30.681-58.397l0.238-0.155 22.63 34.017c-7.776 5.496-12.792 14.45-12.792 24.576s5.016 19.080 12.698 24.513l0.094 0.063c18.725 12.676 30.87 33.843 30.87 57.846s-12.145 45.17-30.625 57.689l-0.245 0.156zM586.875 796.385l-22.528-33.997c7.754-5.214 12.787-13.954 12.787-23.869s-5.033-18.656-12.685-23.804l-0.102-0.065c-18.772-12.945-30.918-34.33-30.918-58.552s12.146-45.608 30.681-58.397l0.238-0.155 22.528 34.017c-7.776 5.496-12.792 14.45-12.792 24.576s5.016 19.080 12.698 24.513l0.094 0.063c18.722 12.677 30.865 33.841 30.865 57.842 0 23.992-12.134 45.15-30.6 57.672l-0.244 0.156z" />
<glyph unicode="&#xe914;" glyph-name="chat_icn" d="M278.692 618.947h194.396c7.262 0 13.148 5.887 13.148 13.148s-5.887 13.148-13.148 13.148v0h-194.396c-7.262 0-13.148-5.887-13.148-13.148s5.887-13.148 13.148-13.148v0zM719.38 540.058h-440.689c-7.262 0-13.148-5.887-13.148-13.148s5.887-13.148 13.148-13.148h440.689c7.035 0.286 12.629 6.059 12.629 13.138s-5.595 12.851-12.603 13.137l-0.026 0.001zM719.38 434.872h-440.689c-7.262 0-13.148-5.887-13.148-13.148s5.887-13.148 13.148-13.148h440.689c7.035 0.286 12.629 6.059 12.629 13.138s-5.595 12.851-12.603 13.137l-0.026 0.001zM823.071 816.169h-622.141c-42.995-0.88-77.546-35.804-77.824-78.862v-433.937c0.278-43.085 34.829-78.009 77.742-78.888l0.082-0.001h103.69v-131.482c0-0.020 0-0.044 0-0.068 0-5.514 3.394-10.235 8.207-12.188l0.088-0.032c1.4-0.571 3.025-0.902 4.728-0.902 3.817 0 7.245 1.665 9.597 4.309l0.011 0.013 125.747 140.329h370.074c42.995 0.88 77.546 35.804 77.824 78.862v433.957c-0.278 43.085-34.829 78.009-77.742 78.888l-0.082 0.001zM874.906 303.37c-0.189-28.712-23.205-51.987-51.799-52.592l-0.057-0.001h-347.628l46.387 54.723c1.945 2.297 3.128 5.293 3.128 8.566 0 3.963-1.735 7.521-4.486 9.957l-0.014 0.012c-2.247 1.965-5.207 3.163-8.448 3.163-3.929 0-7.446-1.761-9.805-4.538l-0.015-0.018-64.553-76.165-107.069-119.48v110.592c0 0.030 0 0.067 0 0.103 0 7.176-5.794 12.999-12.96 13.045h-116.74c-28.646 0.606-51.658 23.883-51.835 52.575v433.968c0.178 28.738 23.236 52.032 51.864 52.592l0.053 0.001h622.141c28.655-0.595 51.678-23.876 51.855-52.576v-433.927z" />
<glyph unicode="&#xe915;" glyph-name="contact_admin" d="M660.623 322.662h-296.489c-132.956-0.14-240.702-107.872-240.865-240.809v-22.974h778.24v22.958c-0.163 132.96-107.921 240.696-240.873 240.824h-0.012zM563.896 277.115l-51.2-54.682-51.2 54.682h102.523zM170.127 104.428c11.851 97.627 94.162 172.546 193.994 172.667h34.829l113.705-121.303 113.705 121.303h34.284c99.846-0.121 182.156-75.040 193.914-171.727l0.093-0.94h-684.524zM512.635 837.12c-127.313-0.047-230.502-103.265-230.502-230.584 0-127.348 103.236-230.584 230.584-230.584s230.584 103.236 230.584 230.584v0c-0.163 127.311-103.348 230.468-230.655 230.584h-0.011zM512.635 421.499c-102.175 0.023-184.996 82.858-184.996 185.037 0 102.193 82.844 185.037 185.037 185.037s185.037-82.844 185.037-185.037v0c-0.14-102.151-82.924-184.92-185.067-185.037h-0.011zM635.392 583.762v45.548h-32.645c-2.398 9.396-5.91 17.648-10.472 25.194l0.232-0.413 23.122 23.122-32.215 32.215-23.122-23.122c-7.133 4.328-15.385 7.84-24.14 10.1l-0.641 0.14v32.707h-45.65v-32.666c-9.396-2.4-17.648-5.911-25.194-10.472l0.413 0.232-23.122 23.060-32.215-32.215 23.122-23.122c-4.332-7.133-7.843-15.385-10.1-24.141l-0.14-0.639h-32.727v-45.548h32.666c2.397-9.396 5.908-17.648 10.471-25.193l-0.231 0.412-23.060-23.101 32.215-32.215 23.122 23.122c7.133-4.326 15.385-7.837 24.139-10.099l0.642-0.141v-32.666h45.568v32.604c9.396 2.4 17.648 5.911 25.194 10.472l-0.413-0.232 23.122-23.122 32.215 32.195-23.122 23.122c4.329 7.133 7.84 15.385 10.1 24.14l0.14 0.641h32.666zM512.635 559.186c-26.142 0.012-47.329 21.206-47.329 47.35 0 26.151 21.199 47.35 47.35 47.35s47.35-21.199 47.35-47.35v0c-0.035-26.144-21.225-47.326-47.368-47.35h-0.002z" />
<glyph unicode="&#xe916;" glyph-name="dashbord" d="M521.789 793.17c-143.77 0-256.369-106.189-256.369-241.664 4.34-82.451 28.068-158.512 66.67-224.851l-1.277 2.377c7.25-13.087 16.712-26.829 26.624-41.411 20.96-25.75 37.106-56.342 46.514-89.755l0.426-1.77c-13.199-4.899-22.434-17.385-22.434-32.027 0-0.26 0.003-0.52 0.009-0.779l-0.001 0.039c0.048-9.221 3.605-17.601 9.402-23.883l-0.022 0.024c-5.818-6.378-9.382-14.901-9.382-24.255 0-10.202 4.238-19.414 11.050-25.971l0.011-0.011c6.176-5.92 14.573-9.564 23.821-9.564 0.028 0 0.056 0 0.083 0h209.773c19.335 0.127 34.96 15.831 34.96 35.184 0 0.087 0 0.173-0.001 0.26v-0.013c0 0.052 0 0.113 0 0.174 0 9.363-3.58 17.889-9.445 24.285l0.024-0.027c5.837 6.488 9.411 15.114 9.421 24.574v0.002c0.001 0.095 0.002 0.206 0.002 0.318 0 14.554-9.262 26.944-22.213 31.598l-0.234 0.073c9.826 35.157 25.949 65.727 47.243 91.926l-0.364-0.463c10.015 14.561 19.476 28.324 26.624 41.39 37.377 63.958 61.154 140.022 65.483 221.249l0.053 1.246c0 135.537-112.64 241.725-256.451 241.725zM626.688 103.629h-209.777c-6.356 0.272-11.405 5.491-11.405 11.889s5.050 11.617 11.381 11.888l0.025 0.001h209.777c6.356-0.272 11.405-5.491 11.405-11.889s-5.050-11.617-11.381-11.888l-0.025-0.001zM624.968 151.183h-206.336c-0.105-0.003-0.228-0.005-0.352-0.005-7.087 0-12.853 5.66-13.021 12.707v0.016c0 0.143 0 0.307 0 0.451 0.58 6.036 5.626 10.719 11.766 10.719 0.567 0 1.125-0.040 1.67-0.117l-0.063 0.007h206.316c0.438 0.057 0.945 0.090 1.46 0.090 6.456 0 11.713-5.133 11.913-11.54v-0.018c-0.321-6.87-5.969-12.318-12.889-12.318-0.17 0-0.34 0.003-0.509 0.010l0.024-0.001zM692.552 340.664c-6.697-12.083-15.831-25.375-25.498-39.444-21.873-31.826-46.367-67.461-51.2-102.4h-188.109c-4.772 35.021-29.266 70.656-51.2 102.4-9.667 14.070-18.821 27.361-25.498 39.444-35.192 60.646-57.738 132.639-62.219 209.482l-0.060 1.298c0 122.225 102.4 217.948 233.062 217.948s233.062-95.744 233.062-217.948c-4.589-78.155-27.183-150.143-63.656-213.086l1.233 2.306zM521.789 698.061c-0.286 0.006-0.624 0.010-0.963 0.010-26.275 0-47.575-21.3-47.575-47.575s21.3-47.575 47.575-47.575c26.275 0 47.575 21.3 47.575 47.575 0 0.004 0 0.008 0 0.011v-0.001c0.001 0.135 0.002 0.294 0.002 0.453 0 25.843-20.811 46.825-46.589 47.101h-0.026zM521.789 626.729c-0.14-0.003-0.305-0.005-0.471-0.005-13.132 0-23.777 10.645-23.777 23.777s10.645 23.777 23.777 23.777c13.13 0 23.775-10.643 23.777-23.772v0c0.001-0.067 0.001-0.147 0.001-0.227 0-12.921-10.406-23.412-23.294-23.551h-0.013zM568.381 330.097l-11.653 237.773c-0.258 6.247-5.354 11.222-11.627 11.284h-46.618c-6.278-0.063-11.375-5.037-11.632-11.261l-0.001-0.023-11.715-237.773c-0.013-0.209-0.021-0.453-0.021-0.699 0-6.256 4.869-11.374 11.025-11.772l0.035-0.002h70.513c6.451 0.069 11.654 5.315 11.654 11.775 0 0.036 0 0.072 0 0.109v-0.006c0.061 0.184 0.061 0.389 0.041 0.594zM499.077 341.402l10.486 213.996h24.453l10.486-213.996h-45.425zM813.056 555.397h46.612v-23.777h-46.612v23.777zM183.788 555.397h46.612v-23.777h-46.551v23.777zM748.605 309.289l16.384 16.814 32.973-33.628-16.384-16.814zM274.575 778.895l16.384 16.814 32.952-33.628-16.384-16.814zM729.231 756.019l32.973 33.628 16.384-16.814-32.952-33.628zM247.521 290.304l32.973 33.628 16.384-16.814-32.973-33.628z" />
<glyph unicode="&#xe917;" glyph-name="facebook" d="M576 608v128c0 35.328 28.672 64 64 64h64v160h-128c-106.048 0-192-85.952-192-192v-160h-128v-160h128v-512h192v512h128l64 160h-192z" />
<glyph unicode="&#xe918;" glyph-name="graph_view" d="M193.925 108.954v687.514h-29.839v-717.414h716.308v29.901h-686.469zM765.194 615.936v-29.901h64.246l-223.048-223.396-100.352 100.352-113.029-113.295-50.135 50.217-115.323-115.487 21.094-21.135 94.208 94.351 50.135-50.217 113.111 113.275 100.352-100.352 244.081 244.552v-64.348h29.839v115.384h-115.18z" />
<glyph unicode="&#xe919;" glyph-name="home" d="M810.906 524.472l-290.857 266.486c-4.299 3.949-10.057 6.369-16.38 6.369-6.564 0-12.52-2.609-16.886-6.846l0.006 0.006-274.719-266.486c-4.537-4.408-7.352-10.567-7.352-17.384 0-0.001 0-0.002 0-0.004v0-382.751c0-13.381 10.847-24.228 24.228-24.228 0.007 0 0.014 0 0.022 0h201.993c0.006 0 0.013 0 0.020 0 13.381 0 24.228 10.847 24.228 24.228 0 0 0 0 0 0v0 177.644h113.111v-177.644c0-13.381 10.847-24.228 24.228-24.228 0.007 0 0.014 0 0.022 0h201.993c13.381 0 24.228 10.847 24.228 24.228v0 382.751c-0.008 7.064-3.038 13.419-7.867 17.842l-0.018 0.016zM770.273 148.091h-153.6v177.644c0 13.381-10.847 24.228-24.228 24.228v0h-161.587c-0.006 0-0.013 0-0.020 0-13.381 0-24.228-10.847-24.228-24.228 0 0 0 0 0 0v0-177.644h-153.6v348.283l251.126 243.405 266.24-243.835v-347.853z" />
<glyph unicode="&#xe91a;" glyph-name="influencer_list" d="M414.003 553.677c-0.353 0.004-0.77 0.007-1.188 0.007-58.646 0-106.189-47.542-106.189-106.189s47.542-106.189 106.189-106.189c58.644 0 106.185 47.539 106.189 106.182v0c0.001 0.141 0.001 0.307 0.001 0.473 0 58.135-46.924 105.31-104.963 105.715h-0.039zM414.003 391.721c-0.189-0.002-0.412-0.004-0.635-0.004-30.811 0-55.788 24.977-55.788 55.788s24.977 55.788 55.788 55.788c30.809 0 55.785-24.975 55.788-55.784v0c0-0.073 0.001-0.16 0.001-0.247 0-30.538-24.646-55.32-55.132-55.54h-0.021zM623.596 46.203c-7.607 52.366-33.143 97.709-70.068 130.512l-0.22 0.192c-36.873 32.797-85.729 52.833-139.264 52.833s-102.391-20.036-139.477-53.019l0.213 0.186c-37.146-32.994-62.682-78.337-70.148-129.543l-0.139-1.161c-0.161-1.073-0.252-2.312-0.252-3.572 0-6.314 2.304-12.090 6.118-16.532l-0.028 0.034c4.572-5.32 11.304-8.672 18.819-8.684h369.789c7.52 0.017 14.253 3.377 18.793 8.671l0.028 0.033c3.784 4.406 6.088 10.178 6.088 16.489 0 1.256-0.091 2.491-0.268 3.698l0.016-0.137zM260.526 67.83c21.663 65.283 82.168 111.538 153.477 111.538s131.814-46.255 153.149-110.399l0.328-1.139h-306.954zM414.003 715.633c-13.918 0-25.201-11.283-25.201-25.201s11.283-25.201 25.201-25.201v0c119.099-0.823 215.329-97.562 215.329-216.776 0-0.333-0.001-0.666-0.002-0.998v0.051c0-13.765 11.159-24.924 24.924-24.924s24.924 11.159 24.924 24.924v0c0.002 0.349 0.003 0.761 0.003 1.173 0 146.811-118.509 265.942-265.082 266.95l-0.096 0.001zM714.752 751.616c-76.318 77.77-182.53 125.973-300.001 125.973-0.263 0-0.525 0-0.788-0.001h0.041c-13.611-0.4-24.492-11.53-24.492-25.201s10.881-24.8 24.456-25.2l0.037-0.001c207.681-1.438 375.484-170.128 375.484-378.011 0-0.586-0.001-1.173-0.004-1.758v0.091c0-13.765 11.159-24.924 24.924-24.924s24.924 11.159 24.924 24.924v0c0.002 0.457 0.003 0.997 0.003 1.538 0 118.025-47.583 224.937-124.611 302.598l0.029-0.029z" />
<glyph unicode="&#xe91b;" glyph-name="instagram2" d="M762.519-64h-501.038c-144.176 0-261.481 117.338-261.481 261.514v501.038c0 144.176 117.306 261.448 261.481 261.448h501.038c144.176 0 261.481-117.273 261.481-261.448v-501.038c0-144.176-117.306-261.514-261.481-261.514zM261.481 901.512c-111.931 0-202.96-91.029-202.96-202.927v-501.038c0-111.931 91.062-202.96 202.96-202.96h501.038c111.931 0 202.927 91.062 202.927 202.96v501.005c0 111.931-91.029 202.927-202.927 202.927h-501.038zM994.723 575.773h-360.653c-16.155 0-29.277 13.122-29.277 29.277s13.089 29.277 29.277 29.277h360.62c16.155 0 29.277-13.089 29.277-29.277 0.033-16.155-13.089-29.277-29.244-29.277zM382.347 575.773h-353.103c-16.155 0-29.244 13.122-29.244 29.244 0 16.155 13.089 29.277 29.244 29.277h353.103c16.155 0 29.277-13.089 29.277-29.277-0.033-16.122-13.122-29.244-29.277-29.244zM511.984 219.835c-125.812 0-228.215 102.337-228.215 228.182s102.37 228.215 228.215 228.215c125.812 0 228.182-102.337 228.182-228.215 0-125.845-102.337-228.182-228.182-228.182zM511.984 617.711c-93.567 0-169.727-76.16-169.727-169.727s76.16-169.661 169.727-169.661c93.567 0 169.661 76.094 169.661 169.661s-76.094 169.727-169.661 169.727zM842.602 651.372h-131.647c-16.155 0-29.277 13.089-29.277 29.244v131.68c0 16.155 13.122 29.244 29.277 29.244h131.647c16.155 0 29.244-13.089 29.244-29.244v-131.68c-0.033-16.188-13.089-29.244-29.244-29.244zM740.165 709.893h73.159v73.126h-73.159v-73.126z" />
<glyph unicode="&#xe91c;" glyph-name="list_view" d="M870.4 478.106h-528.097c-0.234 0.007-0.509 0.010-0.785 0.010-16.627 0-30.106-13.479-30.106-30.106s13.479-30.106 30.106-30.106c0.276 0 0.551 0.004 0.826 0.011l-0.040-0.001h528.097c0.234-0.007 0.509-0.010 0.785-0.010 16.627 0 30.106 13.479 30.106 30.106s-13.479 30.106-30.106 30.106c-0.276 0-0.551-0.004-0.826-0.011l0.040 0.001zM870.4 703.857h-528.097c-0.234 0.007-0.509 0.010-0.785 0.010-16.627 0-30.106-13.479-30.106-30.106s13.479-30.106 30.106-30.106c0.276 0 0.551 0.004 0.826 0.011l-0.040-0.001h528.097c0.234-0.007 0.509-0.010 0.785-0.010 16.627 0 30.106 13.479 30.106 30.106s-13.479 30.106-30.106 30.106c-0.276 0-0.551-0.004-0.826-0.011l0.040 0.001zM870.4 252.355h-528.097c-0.234 0.007-0.509 0.010-0.785 0.010-16.627 0-30.106-13.479-30.106-30.106s13.479-30.106 30.106-30.106c0.276 0 0.551 0.004 0.826 0.011l-0.040-0.001h528.097c0.234-0.007 0.509-0.010 0.785-0.010 16.627 0 30.106 13.479 30.106 30.106s-13.479 30.106-30.106 30.106c-0.276 0-0.551-0.004-0.826-0.011l0.040 0.001zM164.229 714.383c22.299-0.186 40.305-18.306 40.305-40.631 0-22.441-18.192-40.632-40.632-40.632s-40.632 18.191-40.632 40.631v0c0.105 22.463 18.339 40.633 40.816 40.633 0.051 0 0.101 0 0.152 0h-0.008zM164.229 488.632c22.299-0.186 40.305-18.306 40.305-40.631 0-22.441-18.192-40.632-40.632-40.632s-40.632 18.191-40.632 40.631v0c0.105 22.463 18.339 40.633 40.816 40.633 0.051 0 0.101 0 0.152 0h-0.008zM164.229 262.881c22.299-0.186 40.305-18.306 40.305-40.631 0-22.441-18.192-40.632-40.632-40.632s-40.632 18.191-40.632 40.631v0c0.105 22.463 18.339 40.633 40.816 40.633 0.051 0 0.101 0 0.152 0h-0.008z" />
<glyph unicode="&#xe91d;" glyph-name="manage_brand" d="M796.365 523.571l-274.78 156.303c-2.798 1.623-6.156 2.581-9.738 2.581s-6.94-0.958-9.833-2.632l0.095 0.050-274.78-156.303c-5.941-3.419-9.879-9.727-9.892-16.956v-312.568c0.008-7.232 3.948-13.542 9.797-16.907l0.095-0.050 274.78-156.324c2.796-1.617 6.15-2.574 9.726-2.58h0.002c0.007 0 0.015 0 0.024 0 3.571 0 6.918 0.958 9.798 2.631l-0.093-0.050 274.78 156.324c5.944 3.416 9.884 9.726 9.892 16.956v312.567c-0.004 7.228-3.936 13.537-9.777 16.907l-0.094 0.050zM767.017 205.312l-255.16-145.142-255.16 145.142v289.956l255.16 145.244 255.16-145.142v-290.058zM803.676 516.301l-0.050 0.093c1.676-2.877 2.636-6.221 2.636-9.791 0-7.227-3.937-13.535-9.877-16.947l-264.888-150.692v-301.302c0-10.841-8.789-19.63-19.63-19.63s-19.63 8.789-19.63 19.63v301.322l-264.983 150.742c-5.849 3.36-9.789 9.67-9.789 16.9 0 3.559 0.955 6.896 2.572 9.674l0.050 0.094c3.398 5.842 9.726 9.769 16.971 9.769 3.586 0 6.947-0.962 9.746-2.592l265.052-150.774 264.958 150.724c2.892 1.676 6.25 2.635 9.833 2.635 7.245 0 13.574-3.923 17.029-9.855zM565.084 833.024l-39.137 38.912c-0.389 0.389-0.819 0.778-1.249 1.167-2.789 2.37-6.291 3.982-10.142 4.475l-0.098 0.010c-1.27 0.266-2.458 0.266-3.543 0.307-5.004-0.303-9.46-2.428-12.76-5.715l0.001 0.001-39.26-39.158c-3.335-3.507-5.387-8.262-5.387-13.496 0-10.824 8.775-19.599 19.599-19.599 5.255 0 10.026 2.068 13.546 5.434l-0.007-0.007 5.734 5.714v-70.062c0-10.83 8.78-19.61 19.61-19.61s19.61 8.78 19.61 19.61v0 70.185l5.734-5.714c3.56-3.532 8.463-5.715 13.875-5.715s10.316 2.183 13.876 5.716l-0.001-0.001c3.52 3.527 5.697 8.396 5.697 13.773s-2.177 10.246-5.697 13.773v0zM962.396 109.117v0l-14.725 53.248c-2.352 8.389-9.931 14.439-18.924 14.439-10.836 0-19.62-8.784-19.62-19.62 0-1.844 0.254-3.628 0.73-5.32l-0.033 0.138 2.15-7.782-48.64 27.709c-2.907 1.804-6.434 2.874-10.211 2.874-10.813 0-19.579-8.766-19.579-19.579 0-7.452 4.164-13.932 10.291-17.24l0.104-0.051 48.64-27.505-7.844-2.048c-8.349-2.345-14.368-9.891-14.368-18.842 0-10.79 8.747-19.538 19.538-19.538 0.004 0 0.008 0 0.013 0h-0.001c0.029 0 0.063 0 0.096 0 1.83 0 3.593 0.285 5.248 0.812l53.126 14.61c0.646 0.157 1.172 0.318 1.686 0.506l-0.109-0.035c3.668 1.317 6.722 3.592 8.956 6.527l0.035 0.047c0.729 0.952 1.409 2.025 1.992 3.156l0.056 0.12c1.264 2.5 2.004 5.45 2.004 8.572 0 1.743-0.231 3.432-0.663 5.039l0.031-0.135zM187.044 164.413c-3.464 5.955-9.816 9.894-17.087 9.894-3.558 0-6.895-0.943-9.776-2.593l0.096 0.051-48.66-27.423 2.15 7.782c0.442 1.554 0.697 3.338 0.697 5.181 0 10.836-8.784 19.62-19.62 19.62-8.992 0-16.572-6.049-18.89-14.3l-0.033-0.138-14.725-53.248c-0.421-1.513-0.662-3.25-0.662-5.044 0-3.097 0.721-6.026 2.004-8.628l-0.051 0.115c0.641-1.261 1.321-2.341 2.088-3.352l-0.040 0.054c2.271-2.934 5.289-5.187 8.772-6.488l0.137-0.045c0.553-0.184 1.106-0.389 1.679-0.553l53.391-14.623c1.566-0.44 3.364-0.694 5.221-0.696h0.001c0.027 0 0.059 0 0.090 0 10.757 0 19.476 8.72 19.476 19.476 0 8.975-6.071 16.533-14.331 18.79l-0.137 0.032-7.762 2.068 48.64 27.505c5.954 3.408 9.901 9.723 9.901 16.96 0 3.572-0.962 6.919-2.64 9.797l0.050-0.093z" />
<glyph unicode="&#xe91e;" glyph-name="manage_network" d="M522.24 623.514c-97.321 0-157.696-49.295-157.696-129.167 0.081-9.066 7.449-16.384 16.527-16.384 0.029 0 0.058 0 0.087 0h282.251c0.025 0 0.054 0 0.083 0 9.077 0 16.446 7.318 16.527 16.377v0.008c-0.082 79.688-60.457 129.167-157.778 129.167zM398.828 510.874c10.957 73.728 96.256 79.872 123.412 79.872s112.435-6.144 123.412-79.872h-246.825zM522.24 796.058c-42.763-0.463-77.251-35.237-77.251-78.065 0-43.117 34.953-78.070 78.070-78.070s78.070 34.953 78.070 78.070c0 0.006 0 0.011 0 0.017v-0.001c-0.243 43.158-35.286 78.050-78.478 78.050-0.144 0-0.289 0-0.433-0.001h0.022zM522.24 672.809c-24.759 0.266-44.728 20.4-44.728 45.197 0 24.963 20.236 45.199 45.199 45.199s45.199-20.236 45.199-45.199c0-0.006 0-0.013 0-0.019v0.001c-0.139-24.982-20.423-45.18-45.424-45.18-0.087 0-0.173 0-0.26 0.001h0.013zM239.882 245.555c-97.321 0-157.696-49.295-157.696-129.167 0.081-9.066 7.449-16.384 16.527-16.384 0.029 0 0.058 0 0.087 0h282.272c0.025 0 0.054 0 0.083 0 9.077 0 16.446 7.318 16.527 16.377v0.008c0 79.708-60.457 129.167-157.798 129.167zM116.47 132.915c10.957 73.728 96.010 79.872 123.412 79.872s112.456-6.144 123.412-79.872h-246.825zM239.882 418.099c-42.743-0.475-77.21-35.235-77.21-78.045 0-43.105 34.944-78.049 78.049-78.049s78.047 34.941 78.049 78.045v0c-0.243 43.158-35.286 78.050-78.478 78.050-0.144 0-0.289 0-0.433-0.001h0.022zM239.882 294.851c-24.759 0.266-44.728 20.4-44.728 45.197 0 24.963 20.236 45.199 45.199 45.199s45.199-20.236 45.199-45.199c0-0.006 0-0.013 0-0.019v0.001c-0.139-24.982-20.423-45.18-45.424-45.18-0.087 0-0.173 0-0.26 0.001h0.013zM804.598 245.555c-97.321 0-157.696-49.295-157.696-129.167 0.081-9.066 7.449-16.384 16.527-16.384 0.029 0 0.058 0 0.087 0h282.251c0.025 0 0.054 0 0.083 0 9.077 0 16.446 7.318 16.527 16.377v0.008c0 79.708-60.457 129.167-157.778 129.167zM681.185 132.915c10.957 73.728 96.010 79.872 123.412 79.872s112.435-6.144 123.412-79.872h-246.825zM804.598 418.099c-42.743-0.475-77.21-35.235-77.21-78.045 0-43.105 34.944-78.049 78.049-78.049s78.047 34.941 78.049 78.045v0c-0.243 43.158-35.286 78.050-78.478 78.050-0.144 0-0.289 0-0.433-0.001h0.022zM804.598 294.851c-24.759 0.266-44.728 20.4-44.728 45.197 0 24.963 20.236 45.199 45.199 45.199s45.199-20.236 45.199-45.199c0-0.006 0-0.013 0-0.019v0.001c-0.139-24.982-20.423-45.18-45.424-45.18-0.087 0-0.173 0-0.26 0.001h0.013zM608.113 273.92l-69.263 68.854v97.034c0 9.173-7.436 16.609-16.609 16.609s-16.609-7.436-16.609-16.609v0-96.952l-69.263-68.526c-3.061-2.98-4.96-7.14-4.96-11.744 0-4.533 1.841-8.636 4.816-11.603v0c3.042-3.037 7.241-4.915 11.88-4.915 4.556 0 8.689 1.812 11.717 4.755l-0.004-0.004 62.423 62.013 62.444-61.952c2.892-2.452 6.666-3.943 10.789-3.943 5.027 0 9.536 2.217 12.603 5.726l0.017 0.020c2.435 2.842 3.917 6.563 3.917 10.631 0 4.056-1.474 7.768-3.916 10.63l0.019-0.023z" />
<glyph unicode="&#xe91f;" glyph-name="manage_profile" d="M522.24 295.813c117.412 0 212.992 116.736 212.992 260.26s-95.601 260.26-212.992 260.26c-62.242-1.194-117.181-31.436-151.971-77.694l-0.359-0.499c-37.831-48.667-60.65-110.638-60.65-177.939 0-1.459 0.011-2.915 0.032-4.369l-0.003 0.22c-0.041-143.483 95.519-260.239 212.951-260.239zM522.24 768.901c91.32 0 165.622-95.519 165.622-212.992s-74.301-212.992-165.622-212.992-165.622 95.539-165.642 212.992 74.322 213.074 165.642 213.074zM687.862 343.040c-13.064 0-23.654-10.59-23.654-23.654s10.59-23.654 23.654-23.654v0c91.409-0.151 165.47-74.212 165.622-165.607v-0.015c-0.023-13.055-10.6-23.631-23.652-23.654h-615.18c-13.055 0.023-23.631 10.6-23.654 23.652v0.002c0.151 91.409 74.212 165.47 165.607 165.622h0.015c13.064 0 23.654 10.59 23.654 23.654s-10.59 23.654-23.654 23.654v0c-117.59-0.105-212.887-95.402-212.992-212.982v-0.010c0.047-39.184 31.799-70.937 70.979-70.984h615.224c39.184 0.047 70.937 31.799 70.984 70.979v0.004c-0.058 117.611-95.35 212.946-212.939 213.074h-0.012z" />
<glyph unicode="&#xe920;" glyph-name="misellenius" d="M922.092 448c0.001 0.086 0.001 0.187 0.001 0.289 0 17.729-10.075 33.105-24.812 40.715l-0.256 0.12-61.071 30.863 61.071 30.863c15.046 7.819 25.147 23.287 25.147 41.114s-10.101 33.295-24.891 40.992l-0.256 0.121-344.822 174.223c-11.705 6.007-25.537 9.528-40.192 9.528s-28.487-3.521-40.698-9.762l0.506 0.235-344.842-174.223c-15.033-7.829-25.123-23.293-25.123-41.114s10.089-33.285 24.867-40.992l0.255-0.121 61.071-30.863-61.071-30.863c-15.033-7.829-25.123-23.293-25.123-41.114s10.089-33.285 24.867-40.992l0.255-0.121 61.071-30.863-61.071-30.863c-15.044-7.825-25.143-23.295-25.143-41.124s10.098-33.299 24.887-41.003l0.256-0.121 344.76-174.223c11.705-6.007 25.537-9.528 40.192-9.528s28.487 3.521 40.698 9.762l-0.506-0.235 344.904 174.244c15.046 7.819 25.147 23.287 25.147 41.114s-10.101 33.295-24.891 40.992l-0.256 0.121-61.071 30.863 61.071 30.863c14.993 7.73 25.068 23.106 25.068 40.835 0 0.094 0 0.189-0.001 0.283v-0.014zM143.852 584.909c-2.573 1.339-4.299 3.985-4.299 7.035s1.727 5.696 4.255 7.014l0.044 0.021 344.801 174.223c6.796 3.49 14.827 5.536 23.337 5.536s16.541-2.046 23.63-5.672l-0.293 0.136 344.74-174.203c2.573-1.339 4.299-3.985 4.299-7.035s-1.727-5.696-4.255-7.014l-0.044-0.021-344.719-174.203c-6.796-3.49-14.827-5.536-23.337-5.536s-16.541 2.046-23.63 5.672l0.293-0.136zM880.108 311.091c2.562-1.343 4.279-3.983 4.279-7.025s-1.718-5.682-4.236-7.004l-0.043-0.021-344.76-174.223c-6.796-3.489-14.828-5.533-23.337-5.533s-16.541 2.045-23.631 5.67l0.294-0.136-344.76 174.203c-2.573 1.339-4.299 3.985-4.299 7.035s1.727 5.696 4.255 7.014l0.044 0.021 86.364 43.643 241.541-122.061c11.705-6.007 25.537-9.528 40.192-9.528s28.487 3.521 40.698 9.762l-0.506-0.235 241.521 122.040zM880.108 440.975l-344.76-174.203c-6.796-3.49-14.827-5.536-23.337-5.536s-16.541 2.046-23.63 5.672l0.293-0.136-344.76 174.203c-2.573 1.339-4.299 3.985-4.299 7.035s1.727 5.696 4.255 7.014l0.044 0.021 86.364 43.643 241.541-122.040c11.704-6.008 25.537-9.53 40.192-9.53s28.488 3.522 40.698 9.765l-0.506-0.235 241.541 122.040 86.364-43.643c2.567-1.341 4.289-3.984 4.289-7.030 0-3.053-1.731-5.703-4.266-7.019l-0.044-0.021z" />
<glyph unicode="&#xe921;" glyph-name="notification" d="M879.923 156.16h-737.034c-7.578 0.017-14.175 4.202-17.622 10.383l-0.053 0.103c-1.662 2.936-2.641 6.448-2.641 10.189 0 3.915 1.073 7.579 2.94 10.715l-0.053-0.096 100.352 169.984c0 37.478 0.205 245.76 0.717 252.723 9.936 148.903 132.367 266.128 282.527 267.734l0.158 0.001c149.475-1.781 271.324-117.67 282.564-264.509l0.060-0.973c0.553-7.619 0.799-216.617 0.86-254.812l104.448-169.8c1.943-3.12 3.095-6.908 3.095-10.964 0-3.668-0.942-7.116-2.596-10.115l0.055 0.108c-3.485-6.375-10.129-10.635-17.772-10.67h-0.005zM178.77 197.468h664.474l-88.064 143.237c-1.974 3.137-3.147 6.95-3.154 11.037v0.002c0 20.255-0.307 247.276-0.758 257.925-9.883 126.409-114.172 225.437-241.906 226.917l-0.147 0.001c-128.802-1.353-233.718-101.791-242.198-228.632l-0.040-0.744c-0.389-10.24-0.594-242.586-0.594-255.468 0-0.007 0-0.016 0-0.024 0-3.917-1.073-7.584-2.941-10.722l0.053 0.096zM511.406-2.355c-59.568 0.601-107.625 49.029-107.625 108.682 0 0.275 0.001 0.551 0.003 0.826v-0.042c-0.001 0.055-0.001 0.12-0.001 0.185 0 11.253 9.077 20.387 20.308 20.479h174.642c11.232-0.104 20.297-9.233 20.297-20.479 0-0.065 0-0.13-0.001-0.195v0.010c0.002-0.233 0.003-0.508 0.003-0.783 0-59.653-48.057-108.081-107.568-108.682h-0.057zM447.549 86.446c8.511-27.711 33.877-47.509 63.867-47.509s55.356 19.798 63.742 47.037l0.125 0.472h-127.734z" />
<glyph unicode="&#xe922;" glyph-name="twitter" d="M1024 765.477c-37.689-16.7-78.129-28.026-120.618-33.083 43.384 25.98 76.594 67.187 92.334 116.139-40.696-24.059-85.616-41.529-133.48-50.999-38.328 40.888-92.846 66.356-153.316 66.356-116.010 0-210.072-94.062-210.072-210.009 0-16.444 1.856-32.505 5.44-47.864-174.559 8.768-329.345 92.399-432.941 219.481-18.109-30.971-28.411-67.059-28.411-105.581 0-72.883 37.113-137.191 93.423-174.815-34.426 1.151-66.804 10.621-95.15 26.363v-2.624c0-101.741 72.435-186.652 168.48-205.978-17.597-4.735-36.153-7.359-55.35-7.359-13.565 0-26.683 1.344-39.544 3.904 26.746-83.505 104.301-144.228 196.188-145.893-71.859-56.31-162.466-89.776-260.879-89.776-16.956 0-33.658 1.024-50.102 2.88 92.975-59.702 203.354-94.511 321.988-94.511 386.423 0 597.648 320.069 597.648 597.648l-0.704 27.195c41.271 29.437 76.976 66.421 105.067 108.526z" />
<glyph unicode="&#xe923;" glyph-name="louncher" d="M963.727 878.244c-389.53 0-731.402-518.82-745.759-540.918-1.807-2.741-2.883-6.103-2.883-9.717 0-5.11 2.151-9.718 5.598-12.967l0.009-0.008 172.769-165.171c3.531-3.324 8.3-5.366 13.547-5.366 0.018 0 0.036 0 0.055 0h-0.003c3.741 0.032 7.228 1.086 10.206 2.897l-0.089-0.050c23.142 13.681 565.76 340.521 565.76 712.95-0.249 10.19-8.569 18.355-18.795 18.355-0.146 0-0.291-0.002-0.436-0.005h0.022zM409.6 185.856l-150.794 144.179c53.248 77.148 356.127 494.592 685.179 510.935-16.998-314.307-453.55-604.078-534.385-655.114zM387.85 547.881l-0.072-0.005c0.558 0.051 1.124 0.077 1.696 0.077 10.18 0 18.432-8.252 18.432-18.432s-8.252-18.432-18.432-18.432c-0.572 0-1.137 0.026-1.624 0.072-214.098 0-269.476-146.268-283.402-210.473l122.991 44.131c2.131 0.795 4.438 1.23 6.846 1.23 8.038 0 14.944-4.843 18.009-11.897l-0.042 0.123c0.799-2.042 1.238-4.265 1.238-6.59 0-7.954-5.135-14.709-12.398-17.167l-153.472-55.028c-2.094-0.809-4.37-1.252-6.749-1.252-0.048 0-0.096 0-0.137 0.001h0.001c-0.010 0-0.019 0-0.029 0-4.28 0-8.243 1.358-11.421 3.625l-0.059 0.039c-4.654 3.246-7.699 8.639-7.699 14.743 0 0.405 0.013 0.807 0.037 1.152 0.184 2.703 22.262 274.084 326.287 274.084zM618.209 327.639h-0.021c0.144 0.003 0.289 0.005 0.434 0.005 10.27 0 18.616-8.234 18.798-18.477 0-290.652-283.832-311.788-286.72-311.972-0.43 0-0.799 0-1.229 0h0.007c-0.049 0-0.098-0.001-0.147-0.001-6.174 0-11.675 2.882-15.262 7.414l0.028-0.036c-2.388 3.003-3.814 6.805-3.814 10.939 0 2.343 0.458 4.578 1.247 6.505l57.639 147.029c2.998 6.912 9.882 11.746 17.896 11.746 2.441 0 4.776-0.448 6.796-1.223l0.127-0.038c7.136-2.421 12.271-9.175 12.271-17.129 0-2.325-0.439-4.548-1.196-6.467l-46.1-117.617c67.174 13.619 220.058 66.949 220.058 270.889v0.019c0.204 10.206 8.542 18.417 18.797 18.417 0.138 0 0.276-0.001 0.393-0.004zM286.884 212.152c-0.929 0.868-1.962 1.646-3.071 2.309l-0.083 0.046c-36.864 34.324-72.52 46.1-105.574 35.246-87.409-28.672-113.787-211.149-116.47-231.834-0.002-0.107-0.003-0.232-0.003-0.358 0-5.526 2.363-10.499 6.134-13.965l0.014-0.012c4.127-3.809 9.663-6.145 15.745-6.145 0.066 0 0.132 0 0.198 0.001h-0.010c21.688 2.601 212.5 27.791 242.442 111.411 11.715 32.461-1.577 67.215-39.322 103.301zM289.874 120.668c-15.053-42.066-114.872-71.68-186.368-83.436 12.636 69.448 43.377 163.41 87.101 177.766 3.422 1.143 7.363 1.802 11.457 1.802 0.047 0 0.095 0 0.142 0h-0.007c22.901-2.965 42.737-14.217 56.751-30.598l0.102-0.122c0.934-0.881 1.966-1.678 3.071-2.369l0.083-0.048c24.637-24.248 33.935-45.425 27.668-62.976zM675.84 694.702c-0.699 0.016-1.522 0.024-2.347 0.024-61.377 0-111.312-48.993-112.83-110.005l-0.003-0.141c2.676-61.543 53.22-110.424 115.18-110.424s112.503 48.881 115.171 110.183l0.008 0.241c-1.521 61.153-51.455 110.145-112.833 110.145-0.825 0-1.649-0.009-2.47-0.026l0.123 0.002zM675.84 511.16c-39.139 1.812-70.185 33.985-70.185 73.408 0 40.583 32.899 73.482 73.482 73.482 40.579 0 73.475-32.892 73.482-73.469v-0.001c-1.010-40.76-34.292-73.417-75.201-73.417-0.555 0-1.108 0.006-1.66 0.018l0.082-0.001z" />
<glyph unicode="&#xe924;" glyph-name="edit" d="M1015.212 781.506l-169.706 169.706c-5.624 5.626-13.256 8.788-21.212 8.788s-15.588-3.16-21.212-8.788l-725.251-725.247c-3.582-3.582-6.2-8.012-7.606-12.878l-69.044-238.752c-3.038-10.5-0.124-21.818 7.606-29.546 7.75-7.752 19.076-10.634 29.546-7.606l238.752 69.046c4.868 1.408 9.296 4.024 12.878 7.606l725.249 725.245c11.716 11.716 11.716 30.71 0 42.426zM253.002 61.722l-179.066-51.786 51.784 179.064 15.754 15.754 127.28-127.28-15.752-15.752zM311.177 119.9l-127.28 127.28 509.117 509.115 127.28-127.28-509.117-509.115zM862.72 671.441l-127.28 127.28 88.854 88.854 127.28-127.28-88.854-88.854z" />
<glyph unicode="&#xe925;" glyph-name="up-arrow" d="M53.632 187.264l456.96 453.248 457.28-453.552c6.352-6.304 14.672-9.44 22.976-9.44 8.32 0 16.64 3.136 22.976 9.44 12.688 12.592 12.688 32.992 0 45.584l-479.68 475.76c-3.2 3.2-7.904 6-12.112 7.6-12 4.512-25.552 1.712-34.656-7.296l-479.712-475.76c-12.688-12.592-12.688-32.992 0-45.584 12.704-12.576 33.264-12.576 45.968 0z" />
<glyph unicode="&#xe926;" glyph-name="question" d="M551.968-24c0-22.091-17.909-40-40-40s-40 17.909-40 40c0 22.091 17.909 40 40 40s40-17.909 40-40zM825.958 648.45c-1.316 172.020-141.664 311.55-313.99 311.55-173.14 0-314-140.86-314-314 0-22.092 17.908-40 40-40s40 17.908 40 40c0 129.028 104.972 234 234 234s234-104.972 234-234c0-0.712 0.018-1.42 0.056-2.124-0.81-93.124-56.454-176.696-142.24-213.322-80.076-34.188-131.816-113.35-131.816-201.678v-92.876c0-22.092 17.908-40 40-40s40 17.908 40 40v92.876c0 56.234 32.668 106.516 83.228 128.102 115.958 49.508 190.866 162.958 190.836 289.032 0 0.82-0.026 1.632-0.074 2.44z" />
<glyph unicode="&#xe927;" glyph-name="file_plus" d="M537.334 509.563c0 8.319-6.744 15.063-15.063 15.063s-15.063-6.744-15.063-15.063v-138.342h-136.52c-8.427 0-15.258-6.831-15.258-15.258s6.831-15.258 15.258-15.258h136.561v-138.322c0-8.319 6.744-15.063 15.063-15.063s15.063 6.744 15.063 15.063v0 138.342h136.561c8.427 0 15.258 6.831 15.258 15.258s-6.831 15.258-15.258 15.258h-136.602v138.322zM895.98 697.016l-235.438 238.080c-2.805 2.736-6.644 4.424-10.878 4.424-0.028 0-0.056 0-0.083 0h-459.444c-25.523-0.106-46.249-20.495-46.898-45.876l-0.001-0.060v-888.832c0.531-13.42 6.316-25.393 15.34-33.999l0.020-0.019c9.027-8.706 21.329-14.070 34.884-14.070 0.048 0 0.096 0 0.145 0h660.78c25.479 0.013 46.212 20.316 46.918 45.626l0.001 0.065v683.807c-0.354 4.326-2.339 8.129-5.332 10.842l-0.014 0.012zM644.833 907.1l210.493-213.34h-210.944c1.208 128.307 1.27 186.245 0.451 213.34zM870.994 2.355c-0.367-4.222-2.301-7.933-5.21-10.598l-0.012-0.011c-2.965-2.718-6.933-4.383-11.29-4.383-0.027 0-0.054 0-0.081 0h-660.804c-0.023 0-0.051 0-0.078 0-5.182 0-9.915 1.925-13.523 5.099l0.023-0.020c-3.522 3.059-5.901 7.352-6.463 12.199l-0.008 0.089v888.893c0.628 8.532 7.704 15.217 16.342 15.217 0.015 0 0.029 0 0.044 0h423.934c0.737-38.728 0.328-154.993-0.471-230.216 0.035-8.56 6.964-15.489 15.52-15.524h242.077v-660.746z" />
<glyph unicode="&#xe928;" glyph-name="tick" d="M1008.69 901.464c-16.362 11.609-39 7.691-50.572-8.634l-574.327-810.809-321.846 321.9c-14.167 14.167-37.131 14.167-51.316 0-14.167-14.149-14.167-37.131 0-51.298l344.139-344.193c2.576-5.351 6.349-10.194 11.537-13.877 6.367-4.517 13.695-6.675 20.933-6.675 11.373 0 22.565 5.333 29.64 15.31l600.447 847.686c11.573 16.362 7.709 39-8.634 50.591z" />
<glyph unicode="&#xe929;" glyph-name="left_arrow" d="M749.346-2.878c12.701 12.701 12.701 33.34 0 46.040l-405.631 404.837 405.631 405.631c12.701 12.701 12.701 33.34 0 46.040s-33.34 12.701-46.040 0l-427.857-427.857c-6.35-6.35-9.526-14.288-9.526-23.020 0-7.938 3.175-16.67 9.526-23.020l427.857-427.857c12.701-13.495 33.34-13.495 46.040-0.794z" />
<glyph unicode="&#xe92a;" glyph-name="right_arrow" d="M274.654 898.878c-12.701-12.701-12.701-33.34 0-46.040l405.631-404.837-405.631-405.631c-12.701-12.701-12.701-33.34 0-46.040s33.34-12.701 46.040 0l427.857 427.857c6.35 6.35 9.526 14.288 9.526 23.020 0 7.938-3.175 16.67-9.526 23.020l-427.857 427.857c-12.701 13.495-33.34 13.495-46.040 0.794z" />
<glyph unicode="&#xe92b;" glyph-name="speaker" d="M687.8 814.1l-461.292-255.508h-159.519c-14.506-0.127-26.216-11.915-26.216-26.439 0-0.101 0.001-0.202 0.002-0.303v0.015-186.696c-0.001-0.086-0.002-0.187-0.002-0.288 0-14.524 11.71-26.312 26.204-26.439h73.105c-0.316-4.001-0.496-8.662-0.496-13.366 0-73.849 44.357-137.339 107.882-165.278l1.157-0.454c18.9-6.996 40.73-11.043 63.506-11.043 56.375 0 106.958 24.797 141.438 64.078l0.183 0.213 234.189-129.618c3.579-1.928 7.832-3.061 12.349-3.061 14.602 0 26.44 11.837 26.44 26.44 0 0.011 0 0.021 0 0.032v-0.002 704.307c-0.113 14.618-11.989 26.425-26.623 26.425-4.499 0-8.738-1.116-12.454-3.086l0.144 0.070zM93.225 371.753v133.591h113.889v-133.53h-113.889zM268.718 188.539c-45.373 20.034-76.466 64.635-76.466 116.498 0 4.658 0.251 9.256 0.74 13.784l-0.049-0.561h33.976l179.732-99.635c-22.578-24.378-54.756-39.587-90.486-39.587-17.125 0-33.433 3.494-48.252 9.807l0.805-0.305zM259.4 360.837v155.034l414.904 230.031v-614.625zM896.635 659.517c-4.743 5.116-11.5 8.308-19.003 8.308-7.040 0-13.424-2.811-18.091-7.371l-78.515-76.406c-5.145-4.865-8.347-11.738-8.347-19.36 0-7.165 2.83-13.669 7.434-18.455l-0.008 0.009c5.143-4.145 11.756-6.653 18.955-6.653 6.834 0 13.14 2.26 18.212 6.074l-0.078-0.056 78.5 76.104c5.036 4.927 8.158 11.793 8.158 19.387 0 7.12-2.744 13.598-7.232 18.436l0.016-0.017zM956.989 465.244h-108.134c-14.45-0.413-26.007-12.225-26.007-26.737s11.557-26.324 25.969-26.736l0.038-0.001h108.155c14.45 0.413 26.007 12.225 26.007 26.737s-11.557 26.324-25.969 26.736l-0.038 0.001zM895.713 255.14l-78.561 76.124c-4.647 4.592-11.038 7.429-18.091 7.429-7.513 0-14.274-3.218-18.981-8.352l-0.017-0.019c-4.511-4.809-7.283-11.298-7.283-18.434 0-7.598 3.142-14.463 8.197-19.365l0.007-0.007 78.52-76.104c4.955-3.671 11.188-5.876 17.936-5.876 7.289 0 13.978 2.573 19.207 6.861l-0.053-0.042c4.551 4.798 7.35 11.296 7.35 18.449 0 7.592-3.154 14.448-8.222 19.328l-0.008 0.008z" />
<glyph unicode="&#xe92c;" glyph-name="blogger" d="M844 630c0 181.961-148.039 330-330 330h-184c-181.961 0-330-148.039-330-330v-364c0-181.961 148.039-330 330-330h364c181.961 0 330 148.039 330 330v334h-150c-16.555 0-30 13.445-30 30zM270 750h304c49.703 0 90-40.297 90-90s-40.297-90-90-90h-304c-49.703 0-90 40.297-90 90s40.297 90 90 90zM754 146h-484c-49.703 0-90 40.297-90 90s40.297 90 90 90h484c49.703 0 90-40.297 90-90s-40.297-90-90-90z" />
<glyph unicode="&#xe92d;" glyph-name="home_new" d="M857.957-64h-223.915c-8.564 0-15.515 6.951-15.515 15.515v315.888h-213.085v-315.888c0-8.564-6.951-15.515-15.515-15.515h-223.977c-8.564 0-15.515 6.951-15.515 15.515v515.32h-127.783c-6.361 0-12.071 3.879-14.429 9.775-2.327 5.896-0.838 12.629 3.755 17.005l489.286 462.134c5.989 5.679 15.329 5.648 21.349 0l489.41-462.134c4.592-4.375 6.082-11.109 3.755-17.005-2.358-5.896-8.068-9.775-14.429-9.775h-127.876v-515.32c0-8.564-6.951-15.515-15.515-15.515zM649.557-32.97h192.884v515.32c0 8.564 6.951 15.515 15.515 15.515h104.355l-450.374 425.27-450.25-425.27h104.262c8.564 0 15.515-6.951 15.515-15.515v-515.32h192.946v315.888c0 8.564 6.951 15.515 15.515 15.515h244.115c8.564 0 15.515-6.951 15.515-15.515v-315.888z" />
<glyph unicode="&#xe92e;" glyph-name="delete" d="M707.148 606.948l-80.156 2.94-17.378-474.568 80.156-2.928zM471.896 608.418h80.208v-474.57h-80.208v474.57zM414.372 135.332l-17.378 474.57-80.156-2.942 17.38-474.568zM34.758 806.266v-80.208h83.578l66.304-753.47c1.818-20.706 19.158-36.588 39.944-36.588h573.48c20.788 0 38.14 15.894 39.944 36.602l66.306 753.456h84.928v80.208h-954.484zM761.33 16.208h-500.022l-62.456 709.85h624.948l-62.47-709.85zM643.008 960h-262.016c-36.856 0-66.84-29.984-66.84-66.84v-126.998h80.208v113.63h235.28v-113.63h80.208v126.998c0 36.856-29.984 66.84-66.84 66.84z" />
<glyph unicode="&#xe92f;" glyph-name="wallet" d="M422.646 530.575c-45.311-0.371-81.9-37.189-81.9-82.552 0-45.594 36.961-82.555 82.555-82.555 45.586 0 82.542 36.948 82.555 82.53v0.001c-0.163 45.64-37.199 82.576-82.862 82.576-0.123 0-0.245 0-0.367-0.001h0.019zM423.608 400.015c-0.012 0-0.027 0-0.042 0-26.567 0-48.125 21.444-48.311 47.967v0.018c-0.001 0.093-0.001 0.202-0.001 0.312 0 26.343 21.355 47.698 47.698 47.698 0.231 0 0.461-0.002 0.691-0.005h-0.035c26.512 0 48.005-21.493 48.005-48.005s-21.493-48.005-48.005-48.005v0zM835.584 816.64h-626.688c-51.2 0-106.312-37.417-106.312-143.032v-451.215c0-105.595 55.112-143.032 106.312-143.032h626.688c51.2 0 106.373 37.437 106.373 143.053v451.195c0.922 105.615-54.19 143.032-106.373 143.032zM136.417 549.765h313.344c1.054 0.039 2.293 0.061 3.537 0.061 56.237 0 101.827-45.589 101.827-101.827s-45.589-101.827-101.827-101.827c-1.244 0-2.482 0.022-3.715 0.067l0.178-0.005h-313.344v203.53zM908.063 222.392c0-97.935-50.278-108.544-72.52-108.544h-626.647c-21.279 0-72.52 10.547-72.52 108.544v89.293h313.344c1.49-0.059 3.239-0.092 4.996-0.092 74.81 0 135.455 60.645 135.455 135.455s-60.645 135.455-135.455 135.455c-1.757 0-3.506-0.033-5.247-0.1l0.251 0.008h-313.303v89.293c0 97.915 50.278 108.544 72.52 108.544h626.647c21.279 0 72.52-10.568 72.52-108.544v-449.311z" />
<glyph unicode="&#xe930;" glyph-name="analysis" d="M817.971 499.753c0 0.146 0 0.319 0 0.492 0 197.645-160.223 357.868-357.868 357.868s-357.868-160.223-357.868-357.868c0-197.616 160.176-357.821 357.781-357.868h0.005c5.673 0.046 10.805 2.327 14.565 6.004l-0.004-0.004c3.707 3.678 6.001 8.775 6.001 14.408 0 0.047 0 0.094 0 0.14v-0.007 316.314h316.826c0.024 0 0.053 0 0.082 0 11.311 0 20.48 9.169 20.48 20.48 0 0.014 0 0.029 0 0.043v-0.002zM460.186 520.233c-11.283-0.069-20.411-9.197-20.48-20.473v-315.645c-165.451 11.372-295.355 148.373-295.355 315.714 0 174.752 141.664 316.416 316.416 316.416 167.551 0 304.686-130.231 315.702-294.991l0.051-0.96h-316.334zM901.386 416.543h-337.408c-11.283-0.069-20.411-9.197-20.48-20.473v-336.842c0.069-11.283 9.197-20.411 20.473-20.48h0.007c0.031 0 0.067 0 0.103 0 197.442 0 357.52 159.977 357.683 357.381v0.016c0 0.037 0 0.080 0 0.123 0 11.232-9.105 20.337-20.337 20.337-0.015 0-0.029 0-0.044 0h0.002zM584.52 80.282v295.281h295.629c-11.005-158.575-137.016-284.466-294.649-295.227l-0.98-0.054z" />
<glyph unicode="&#xe931;" glyph-name="message" d="M912.179 452.321c0.406 1.29 0.641 2.773 0.641 4.311s-0.234 3.021-0.669 4.416l0.028-0.105-69.96 275.517c-6.015 22.216-25.82 38.358-49.456 38.748l-0.044 0.001h-561.459c-0.143 0.001-0.311 0.002-0.48 0.002-23.698 0-43.575-16.362-48.949-38.406l-0.071-0.345-69.96-275.538c-0.408-1.29-0.643-2.773-0.643-4.311s0.235-3.021 0.672-4.416l-0.028 0.105c-5.855-11.263-9.321-24.582-9.4-38.702v-206.668c0-0.001 0-0.002 0-0.003 0-47.268 38.126-85.63 85.304-86.013h648.535c47.223 0.371 85.361 38.739 85.361 86.014 0 0.001 0 0.002 0 0.003v0 206.643c-0.084 14.155-3.557 27.48-9.648 39.229l0.227-0.481zM214.2 727.839c1.698 7.463 8.276 12.949 16.135 12.949 0.325 0 0.648-0.009 0.969-0.028l-0.044 0.002h561.459c8.025-0.159 14.763-5.492 17.025-12.794l0.034-0.129 59.72-235.049c-9.812 4.311-21.245 6.838-33.264 6.881h-156.995c-24.808 0-45.505-17.602-50.283-40.998l-0.056-0.33c-10.995-55.319-59.145-96.437-116.9-96.437s-105.905 41.119-116.774 95.679l-0.126 0.759c-4.835 23.727-25.532 41.328-50.34 41.329h-157c-12.035-0.043-23.468-2.57-33.83-7.095l0.55 0.214zM887.439 206.93c0-0.025 0-0.054 0-0.083 0-28.355-22.876-51.367-51.179-51.588h-648.5c-28.324 0.22-51.2 23.233-51.2 51.588 0 0.029 0 0.059 0 0.088v-0.005 206.643c0 0.025 0 0.054 0 0.083 0 28.355 22.876 51.367 51.179 51.588h157.021c0.167 0.006 0.363 0.010 0.56 0.010 8.009 0 14.626-5.963 15.652-13.692l0.009-0.080c14.487-71.202 76.589-124.029 151.030-124.029s136.543 52.828 150.861 123.039l0.169 0.991c1.308 7.851 8.050 13.763 16.173 13.763 0.017 0 0.033 0 0.050 0h156.997c28.324-0.22 51.2-23.233 51.2-51.588 0-0.029 0-0.059 0-0.088v0.005-206.643z" />
<glyph unicode="&#xe932;" glyph-name="save_brand" d="M823.767 289.198c-0.018 0-0.040 0-0.061 0-8.627 0-15.623-6.982-15.647-15.604v-193.169l-278.528 143.954c-2.106 1.109-4.602 1.76-7.25 1.76s-5.144-0.651-7.337-1.802l0.087 0.042-278.528-143.954v450.765c0 8.675-7.033 15.708-15.708 15.708s-15.708-7.033-15.708-15.708v0-476.406c0.010-5.632 3.005-10.563 7.488-13.294l0.069-0.039c2.328-1.424 5.145-2.268 8.159-2.268 2.645 0 5.138 0.649 7.329 1.797l-0.087-0.041 294.195 152.023 294.277-152.064c2.104-1.105 4.597-1.753 7.241-1.753 3.014 0 5.832 0.842 8.23 2.305l-0.070-0.040c4.552 2.77 7.547 7.7 7.557 13.331v218.85c-0.023 8.624-7.020 15.606-15.647 15.606-0.022 0-0.043 0-0.065 0h0.003zM823.767 837.652h-603.054c-0.018 0-0.040 0-0.061 0-8.627 0-15.623-6.982-15.647-15.604v-165.317c0-8.675 7.033-15.708 15.708-15.708s15.708 7.033 15.708 15.708v0 149.668h571.638v-415.314c0-8.675 7.033-15.708 15.708-15.708s15.708 7.033 15.708 15.708v0 430.961c-0.023 8.624-7.020 15.606-15.647 15.606-0.022 0-0.043 0-0.065 0h0.003zM723.517 562.688c-1.887 5.607-6.709 9.738-12.592 10.598l-0.085 0.010-120.607 17.367-53.965 108.544c-2.636 5.19-7.935 8.684-14.050 8.684-0.007 0-0.014 0-0.021 0h0.001c-0.003 0-0.006 0-0.010 0-6.123 0-11.427-3.503-14.019-8.614l-0.041-0.090-53.903-108.544-120.586-17.428c-5.966-0.876-10.785-5.005-12.645-10.498l-0.032-0.111c-0.488-1.441-0.769-3.101-0.769-4.826 0-4.383 1.817-8.342 4.738-11.165l0.004-0.004 87.286-84.46-20.48-119.296c-0.143-0.792-0.225-1.705-0.225-2.636 0-5.179 2.532-9.766 6.426-12.591l0.045-0.031c2.56-1.864 5.767-2.983 9.236-2.983 2.673 0 5.191 0.664 7.397 1.836l-0.085-0.041 107.704 56.402 107.889-56.279c2.118-1.127 4.632-1.789 7.3-1.789 3.465 0 6.669 1.116 9.273 3.008l-0.045-0.031c3.886 2.856 6.379 7.409 6.379 12.545 0 0.951-0.086 1.883-0.25 2.787l0.014-0.095-20.5 119.378 87.245 84.5c2.905 2.824 4.707 6.769 4.707 11.135 0 1.685-0.268 3.307-0.765 4.826l0.031-0.11zM604.467 478.72c-2.919-2.829-4.731-6.786-4.731-11.167 0-0.932 0.082-1.844 0.239-2.731l-0.014 0.094 16.65-96.256-87.020 45.404c-2.121 1.131-4.639 1.795-7.311 1.795s-5.19-0.664-7.397-1.836l0.085 0.041-86.938-45.281 16.589 96.256c0.141 0.785 0.221 1.69 0.221 2.613 0 4.391-1.818 8.357-4.743 11.187l-0.004 0.004-70.41 68.116 97.28 14.049c5.205 0.771 9.519 4.001 11.776 8.451l0.041 0.090 43.459 87.532 43.52-87.532c2.298-4.535 6.613-7.76 11.732-8.509l0.085-0.010 97.28-14.029zM231.731 604.221c-2.855 2.809-6.775 4.544-11.1 4.544s-8.245-1.734-11.102-4.546l0.002 0.002c-2.78-2.832-4.496-6.716-4.496-11.001 0-8.675 7.033-15.708 15.708-15.708s15.708 7.033 15.708 15.708c0 4.356-1.773 8.298-4.637 11.144l-0.001 0.001zM834.867 344.945c-2.851 2.819-6.772 4.56-11.1 4.56s-8.249-1.741-11.102-4.562l0.001 0.001c-2.84-2.814-4.599-6.716-4.599-11.028s1.758-8.214 4.597-11.027l0.001-0.001c2.849-2.824 6.771-4.568 11.1-4.568s8.252 1.745 11.101 4.57l-0.001-0.001c2.845 2.812 4.607 6.714 4.607 11.028s-1.762 8.217-4.606 11.027l-0.001 0.001z" />
<glyph unicode="&#xe933;" glyph-name="image_file" d="M886.211 775.967h-768.922c-0.079 0-0.173 0.001-0.267 0.001-30.568 0-55.373-24.676-55.581-55.195v-566.005c0.162-30.574 24.985-55.297 55.582-55.297 0.123 0 0.245 0 0.368 0.001h768.821c0.085 0 0.186-0.001 0.287-0.001 30.597 0 55.42 24.722 55.582 55.281v566c-0.209 30.539-25.013 55.215-55.582 55.215-0.101 0-0.202 0-0.304-0.001h0.016zM886.211 720.671v-401.51l-110.203 98.939c-7.451 6.686-17.352 10.774-28.207 10.774-11.55 0-22.020-4.628-29.655-12.131l0.006 0.006-111.534-110.060-219.935 259.318c-7.804 9.102-19.316 14.834-32.166 14.834-12.65 0-24.003-5.554-31.753-14.357l-0.040-0.047-205.435-235.766v390.083h768.922zM648.643 575.734c-0.004 0.292-0.006 0.637-0.006 0.983 0 42.472 34.43 76.902 76.902 76.902s76.902-34.43 76.902-76.902c0-42.472-34.43-76.902-76.902-76.902-0.005 0-0.010 0-0.015 0h0.001c-0.165-0.001-0.359-0.002-0.554-0.002-42.050 0-76.167 33.967-76.41 75.96v0.023z" />
<glyph unicode="&#xe934;" glyph-name="video_file" d="M923.361 737.853c-3.453 1.461-7.463 2.336-11.671 2.396h-0.023c-0.175 0.004-0.38 0.006-0.587 0.006-8.118 0-15.413-3.519-20.444-9.115l-0.022-0.025-188.621-193.249v79.34c0.012 0.678 0.019 1.477 0.019 2.278 0 37.314-15.12 71.096-39.566 95.555v0c-23.45 25.028-56.708 40.622-93.608 40.622-0.578 0-1.156-0.004-1.732-0.011l0.088 0.001h-329.626c-0.489 0.007-1.066 0.011-1.644 0.011-36.9 0-70.158-15.594-93.543-40.552l-0.065-0.070c-24.446-24.458-39.566-58.241-39.566-95.554 0-0.801 0.007-1.601 0.021-2.398l-0.002 0.12v-338.412c-0.012-0.672-0.019-1.464-0.019-2.258 0-37.314 15.12-71.096 39.566-95.555l-0.001 0.001c23.45-25.028 56.708-40.622 93.608-40.622 0.578 0 1.156 0.004 1.732 0.011l-0.088-0.001h329.605c0.492-0.007 1.072-0.011 1.653-0.011 36.897 0 70.152 15.594 93.534 40.552l0.066 0.071c24.446 24.458 39.566 58.24 39.566 95.554 0 0.794-0.007 1.586-0.020 2.377l0.002-0.119v79.872l188.621-193.72c5.053-5.621 12.349-9.14 20.467-9.14 0.206 0 0.412 0.002 0.617 0.007l-0.031-0.001c4.231 0.058 8.242 0.933 11.903 2.474l-0.209-0.078c10.797 4.276 18.294 14.626 18.294 26.728 0 0.576-0.017 1.148-0.050 1.715l0.004-0.078v522.916c0.030 0.491 0.047 1.066 0.047 1.645 0 12.094-7.488 22.439-18.081 26.652l-0.194 0.068z" />
<glyph unicode="&#xe935;" glyph-name="map_location" d="M512.532 857.129c-0.25 0.001-0.545 0.001-0.841 0.001-180.221 0-326.374-145.865-326.839-325.978v-0.044c0-271.012 327.68-492.872 327.68-492.872s327.68 238.162 327.68 492.892c-0.465 180.145-146.609 326.002-326.819 326.002-0.303 0-0.606 0-0.908-0.001h0.047zM512.532 375.726c-85.52 0.419-154.685 69.843-154.685 155.421 0 85.838 69.585 155.423 155.423 155.423s155.423-69.585 155.423-155.423c0-0.014 0-0.028 0-0.041v0.002c-0.233-85.865-69.894-155.382-155.791-155.382-0.13 0-0.26 0-0.389 0h0.020z" />
<glyph unicode="&#xe936;" glyph-name="chat_new" d="M682.107 837.427h-319.734c-132.36-0.14-239.626-107.383-239.8-239.722v-186.385c0.125-127.709 99.942-232.063 225.816-239.442l0.652-0.031v-111.145c0-0.018 0-0.039 0-0.060 0-9.347 5.692-17.364 13.799-20.774l0.148-0.055c2.565-1.091 5.548-1.73 8.68-1.741h0.004c6.235 0.004 11.876 2.54 15.953 6.635l24.987 24.987c62.551 62.863 149.132 101.766 244.798 101.766 0.338 0 0.676 0 1.014-0.001h23.663c132.347 0.128 239.611 107.341 239.821 239.657v186.388c-0.070 132.435-107.375 239.783-239.787 239.923h-0.014zM895.263 411.136c-0.221-117.601-95.542-212.864-213.144-212.992h-23.728c-0.308 0.001-0.672 0.001-1.037 0.001-102.994 0-196.206-41.886-263.529-109.554l-18.12-18.12v180.92c0 7.352-5.96 13.312-13.312 13.312s-13.312-5.96-13.312-13.312v0-52.593c-111.709 7.223-199.612 99.474-199.864 212.311v186.393c0.047 117.74 95.446 213.183 213.165 213.299h319.745c117.657-0.128 213.004-95.461 213.156-213.1v-186.383z" />
<glyph unicode="&#xe937;" glyph-name="like_new" d="M1022.306 640.139c-14.947 164.519-131.395 283.881-277.126 283.881-97.089 0-185.985-52.247-236.006-135.983-49.568 84.82-134.821 136.003-230.354 136.003-145.712 0-262.179-119.362-277.106-283.881-1.182-7.267-6.026-45.512 8.705-107.881 21.23-89.96 70.266-171.786 141.773-236.577l356.747-323.741 362.871 323.721c71.507 64.811 120.544 146.618 141.773 236.597 14.731 62.349 9.886 100.594 8.724 107.861zM975.239 541.298c-19.378-82.161-64.299-157.016-129.78-216.332l-336.285-300.030-330.515 299.951c-65.599 59.435-110.5 134.27-129.898 216.431-13.943 59.021-8.212 92.362-8.192 92.579l0.295 1.989c12.801 144.136 112.863 248.768 237.956 248.768 92.303 0 173.558-56.717 212.118-147.996l18.138-42.991 18.138 42.991c37.949 89.881 123.498 147.977 217.987 147.977 125.073 0 225.155-104.631 238.212-250.638 0.039-0.315 5.77-33.676-8.173-92.697z" />
<glyph unicode="&#xe938;" glyph-name="share" d="M274.186 549.786c5.444-6.523 13.578-10.644 22.673-10.644 7.831 0 14.948 3.054 20.226 8.036l-0.014-0.013c6.25 5.977 10.136 14.383 10.136 23.696 0 8.038-2.894 15.401-7.698 21.102l0.041-0.049-112.64 132.178c-0.206 0.176-0.433 0.351-0.668 0.514l-0.028 0.018c-0.43 0.492-0.86 0.942-1.331 1.372s-0.225 0.532-0.451 0.717c-1.066 0.759-2.286 1.501-3.559 2.154l-0.169 0.079c-1.206 1.011-2.544 1.971-3.952 2.827l-0.144 0.082c-0.553 0.287-1.126 0.41-1.679 0.635-1.409 0.476-3.089 0.877-4.817 1.128l-0.16 0.019c-1.39 0.41-3.038 0.735-4.731 0.911l-0.123 0.010c-0.266 0.020-0.512 0.164-0.778 0.164s-0.553-0.164-0.881-0.184c-1.834-0.182-3.504-0.507-5.115-0.971l0.2 0.049c-1.86-0.265-3.519-0.666-5.114-1.205l0.199 0.058c-0.682-0.221-1.231-0.436-1.766-0.678l0.107 0.043c-1.55-0.923-2.889-1.883-4.139-2.944l0.043 0.036c-1.412-0.724-2.612-1.466-3.748-2.289l0.082 0.057c-0.348-0.164-0.348-0.492-0.635-0.737-0.446-0.419-0.861-0.853-1.251-1.309l-0.019-0.022c-0.205-0.205-0.471-0.307-0.696-0.532l-112.64-132.178c-4.752-5.648-7.639-13.002-7.639-21.031 0-9.324 3.895-17.739 10.146-23.706l0.013-0.012c5.256-4.972 12.368-8.029 20.194-8.029 9.090 0 17.217 4.124 22.612 10.603l0.039 0.048 59.535 69.919v-363.377c-0.011-0.543-0.018-1.183-0.018-1.825 0-50.77 40.575-92.063 91.067-93.22l0.108-0.002h438.149c16.909 0.768 30.328 14.663 30.328 31.693s-13.418 30.925-30.259 31.69l-0.069 0.002h-438.149c-16.861 0.398-30.378 14.161-30.378 31.081 0 0.219 0.002 0.437 0.007 0.655l-0.001-0.033v363.336zM950.6 346.173l-59.515-69.898v363.377c0.012 0.55 0.018 1.198 0.018 1.847 0 50.748-40.541 92.028-91.003 93.219l-0.111 0.002h-427.254c-16.909-0.768-30.328-14.663-30.328-31.693s13.418-30.925 30.259-31.69l0.069-0.002h427.254c16.861-0.398 30.378-14.161 30.378-31.081 0-0.219-0.002-0.437-0.007-0.655l0.001 0.033v-363.356l-59.576 69.898c-5.448 6.511-13.576 10.623-22.666 10.623-7.833 0-14.953-3.054-20.234-8.036l0.014 0.014c-6.251-5.978-10.137-14.384-10.137-23.698 0-8.028 2.887-15.382 7.68-21.080l-0.041 0.050 112.64-132.157c0.184-0.225 0.492-0.287 0.655-0.492s0.881-0.963 1.352-1.434 0.307-0.471 0.532-0.696c1.351-1.041 2.873-2.013 4.479-2.848l0.17-0.081c0.436-0.349 0.925-0.687 1.436-0.991l0.060-0.033c0.717-0.389 1.29-1.085 2.048-1.434 0.266-0.123 0.553-0.164 0.819-0.287 3.293-1.478 7.137-2.339 11.182-2.339s7.889 0.861 11.359 2.41l-0.177-0.071c0.266 0.123 0.553 0.164 0.84 0.287 0.793 0.48 1.461 0.94 2.102 1.433l-0.054-0.040c0.492 0.287 0.881 0.676 1.372 0.963 1.842 0.912 3.427 1.921 4.892 3.075l-0.058-0.044c0.246 0.225 0.307 0.532 0.532 0.758s0.881 0.901 1.311 1.352 0.471 0.287 0.655 0.492l112.64 132.157c4.741 5.645 7.621 12.99 7.621 21.008 0 9.325-3.895 17.74-10.147 23.708l-0.013 0.012c-5.273 5.043-12.437 8.147-20.326 8.147-9.128 0-17.285-4.156-22.683-10.678l-0.040-0.049z" />
<glyph unicode="&#xe939;" glyph-name="mail" d="M941.957 796.324h-859.914c-2.901-0.002-5.73-0.307-8.458-0.887l0.266 0.047c-18.83-3.944-32.768-20.411-32.768-40.132 0-0.003 0-0.006 0-0.009v0-614.687c0-0.002 0-0.005 0-0.008 0-19.722 13.938-36.188 32.501-40.086l0.267-0.047c2.462-0.533 5.291-0.839 8.191-0.84h859.915c2.901 0.001 5.73 0.307 8.457 0.887l-0.265-0.047c18.83 3.944 32.768 20.411 32.768 40.132 0 0.003 0 0.006 0 0.009v0 614.687c0 0.006 0 0.013 0 0.020 0 22.622-18.338 40.96-40.96 40.96 0 0 0 0 0 0v0zM82.043 674.12l324.731-236.36-324.731-236.36v472.719zM941.957 140.657h-859.914v10.035l359.547 261.714 58.388-42.476c3.333-2.446 7.516-3.915 12.042-3.915s8.71 1.468 12.1 3.955l-0.057-0.040 58.388 42.476 359.506-261.673v-10.056zM941.957 201.38l-324.731 236.38 324.751 236.339v-472.699zM941.957 724.767l-429.957-312.914-429.957 312.934v30.556h859.914v-30.556z" />
<glyph unicode="&#xe93a;" glyph-name="view_btn" d="M511.468 755.548c-195.4 0-372.593-111.452-503.276-292.495-5.006-7.008-8.004-15.749-8.004-25.19s2.998-18.183 8.094-25.323l-0.090 0.133c130.744-181.248 307.937-292.7 503.316-292.7s372.531 111.452 503.276 292.495c5.003 7.009 7.999 15.75 7.999 25.19s-2.996 18.182-8.090 25.324l0.090-0.133c-130.744 181.248-307.937 292.7-503.316 292.7zM525.476 213.975c-2.84-0.131-6.17-0.206-9.517-0.206-121.467 0-219.935 98.468-219.935 219.935 0 6.568 0.288 13.069 0.852 19.491l-0.059-0.832c5.331 110.423 91.191 199.205 199.846 209.099l0.858 0.063c2.834 0.131 6.157 0.205 9.497 0.205 121.467 0 219.935-98.468 219.935-219.935 0-6.568-0.288-13.068-0.852-19.49l0.059 0.832c-5.637-110.288-91.318-198.897-199.802-209.095l-0.882-0.067zM518.984 317.358c-3.734-0.409-8.064-0.643-12.449-0.643-66.734 0-120.832 54.098-120.832 120.832s54.098 120.832 120.832 120.832c66.734 0 120.832-54.098 120.832-120.832 0-2.613-0.083-5.206-0.246-7.777l0.018 0.351c-2.873-59.515-49.136-107.37-107.691-112.729l-0.464-0.034z" />
<glyph unicode="&#xe93b;" glyph-name="view_off" d="M160.815 236.564l133.706 133.705c-8.679 24.281-13.404 50.428-13.404 77.675 0 127.555 103.383 230.827 230.827 230.827 27.248 0 53.396-4.724 77.675-13.404l91.299 91.298c-53.285 16.809-110.085 25.818-168.863 25.818-225.883 0-420.565-133.157-509.995-325.311-2.747-5.823-2.747-12.635 0-18.567 36.804-78.992 91.407-148.097 158.754-202.041zM863.185 659.326l-133.706-133.706c8.679-24.28 13.404-50.428 13.404-77.675 0-127.554-103.383-230.827-230.827-230.827-27.247 0-53.396 4.724-77.675 13.404l-91.298-91.299c53.285-16.809 110.084-25.818 168.862-25.818 225.884 0 420.566 133.157 509.995 325.312 2.747 5.823 2.747 12.635 0 18.566-36.804 78.994-91.407 148.1-158.754 202.043zM512.055 300.176c81.63 0 147.769 66.139 147.769 147.769 0 2.527-0.111 5.164-0.22 7.691l-155.24-155.24c2.527-0.11 5.054-0.22 7.691-0.22zM512.055 595.604c-81.63 0-147.769-66.139-147.769-147.769 0-2.527 0.11-5.164 0.22-7.691l155.24 155.24c-2.637 0.22-5.164 0.22-7.691 0.22zM196.522 210.196l-69.435-69.435c-21.424-21.424-21.424-56.251 0-77.675 10.767-10.767 24.83-16.040 38.892-16.040s28.126 5.382 38.892 16.040l692.152 692.152c21.424 21.424 21.424 56.251 0 77.675-10.767 10.767-24.83 16.040-38.891 16.040s-28.127-5.383-38.892-16.040l-622.718-622.717z" />
<glyph unicode="&#xe93c;" glyph-name="flag" d="M831.283 559.124l-617.574 288.502v35.43c0 8.234-6.675 14.909-14.909 14.909s-14.909-6.675-14.909-14.909v-870.093c0-8.234 6.675-14.909 14.909-14.909s14.909 6.675 14.909 14.909v274.821l616.776 243.712c5.622 2.26 9.519 7.667 9.519 13.985 0 6.012-3.529 11.199-8.628 13.604l-0.092 0.039zM213.709 320v494.592l573.44-267.878z" />
<glyph unicode="&#xe93d;" glyph-name="boxout" d="M680.489 818.012h158.843l-363.131-363.336c-5.47-5.45-8.855-12.989-8.855-21.32 0-16.62 13.473-30.093 30.093-30.093 8.29 0 15.796 3.352 21.239 8.774l363.314 363.314v-158.843c0-16.627 13.479-30.106 30.106-30.106s30.106 13.479 30.106 30.106v231.506c0 16.672-13.515 30.188-30.188 30.188v0h-231.424c-0.249 0.007-0.541 0.012-0.835 0.012-16.627 0-30.106-13.479-30.106-30.106s13.479-30.106 30.106-30.106c0.257 0 0.514 0.003 0.77 0.010l-0.038-0.001zM262.41 17.797h498.995c99.741 0.070 180.581 80.896 180.675 180.625v235.017c0 16.627-13.479 30.106-30.106 30.106s-30.106-13.479-30.106-30.106v0-234.844c-0.116-66.449-53.953-120.286-120.391-120.402h-499.068c-66.449 0.116-120.286 53.953-120.402 120.391v498.842c0.116 66.449 53.953 120.286 120.391 120.402h232.93c16.678 0 30.198 13.52 30.198 30.198s-13.52 30.198-30.198 30.198v0h-232.919c-99.708-0.105-180.508-80.905-180.613-180.603v-499.026c0.081-99.754 80.874-180.611 180.595-180.797h0.018z" />
<glyph unicode="&#xe93e;" glyph-name="heart" d="M964.288 781.258c-152.38 197.836-452.269 81.101-452.269-119.808 0 200.908-299.908 317.653-452.31 119.808-157.512-204.532-2.263-562.82 452.3-768.634 454.542 205.814 609.79 564.101 452.279 768.634z" />
<glyph unicode="&#xe93f;" glyph-name="select_upload" d="M821.105 739.615h-245.166c-0.582 0.065-1.257 0.102-1.94 0.102-10.18 0-18.432-8.252-18.432-18.432s8.252-18.432 18.432-18.432c0.683 0 1.358 0.037 2.022 0.11l-0.082-0.007h226.877v-668.754h-581.632v668.733h226.877c0.582-0.065 1.257-0.102 1.94-0.102 10.18 0 18.432 8.252 18.432 18.432s-8.252 18.432-18.432 18.432c-0.683 0-1.358-0.037-2.022-0.11l0.082 0.007h-245.166c-10.18 0-18.432-8.252-18.432-18.432v-705.29c0-10.18 8.252-18.432 18.432-18.432v0h618.209c10.18 0 18.432 8.252 18.432 18.432v0 705.393c-0.047 10.144-8.281 18.35-18.432 18.35 0 0 0 0 0 0v0zM435.22 777.605l58.348 58.286v-546.181c0.802-9.512 8.72-16.928 18.371-16.928s17.569 7.416 18.366 16.861l0.005 0.068v546.181l58.696-58.511c3.174-2.662 7.302-4.28 11.809-4.28 10.18 0 18.432 8.252 18.432 18.432 0 4.491-1.606 8.607-4.276 11.805l0.024-0.029-90.010 89.805c-3.332 3.312-7.924 5.36-12.995 5.36s-9.663-2.047-12.995-5.361l0.001 0.001-89.764-89.58c-2.645-3.168-4.252-7.284-4.252-11.775 0-10.18 8.252-18.432 18.432-18.432 4.506 0 8.635 1.617 11.837 4.303l-0.029-0.023z" />
<glyph unicode="&#xe940;" glyph-name="calender_new" d="M868.127 759.296h-24.576v24.576c0 40.781-33.060 73.841-73.841 73.841s-73.841-33.060-73.841-73.841v0-24.576h-347.914v24.576c0 40.781-33.060 73.841-73.841 73.841s-73.841-33.060-73.841-73.841v0-24.576h-24.576c-40.738-0.023-73.767-33.001-73.871-73.718v-593.93c0.058-40.759 33.090-73.784 73.846-73.83h692.454c40.761 0.047 73.793 33.071 73.851 73.825v593.926c-0.105 40.72-33.121 73.693-73.848 73.728h-0.003zM745.062 783.872c0 13.573 11.003 24.576 24.576 24.576s24.576-11.003 24.576-24.576v-98.304c0-13.573-11.003-24.576-24.576-24.576s-24.576 11.003-24.576 24.576v0 98.427zM249.446 783.872c0 13.573 11.003 24.576 24.576 24.576s24.576-11.003 24.576-24.576v0-98.304c0-13.573-11.003-24.576-24.576-24.576s-24.576 11.003-24.576 24.576v98.427zM892.723 91.525c0-13.573-11.003-24.576-24.576-24.576v0h-692.49c-13.573 0-24.576 11.003-24.576 24.576v0 418.427h741.642v-418.427zM892.723 559.186h-741.683v126.382c0 13.573 11.003 24.576 24.576 24.576v0h24.576v-24.576c0-40.781 33.060-73.841 73.841-73.841s73.841 33.060 73.841 73.841v24.576h347.955v-24.576c0-40.781 33.060-73.841 73.841-73.841s73.841 33.060 73.841 73.841v0 24.576h24.576c13.573 0 24.576-11.003 24.576-24.576v0-126.341zM374.211 460.739h-98.447c-13.573 0-24.576-11.003-24.576-24.576v0-98.447c0-13.573 11.003-24.576 24.576-24.576v0h98.447c13.573 0 24.576 11.003 24.576 24.576v0 98.406c0 0.012 0 0.027 0 0.041 0 13.573-11.003 24.576-24.576 24.576 0 0 0 0 0 0v0zM349.635 362.291h-49.152v49.152h49.152v-49.152zM374.211 263.844h-98.447c-13.573 0-24.576-11.003-24.576-24.576v0-98.468c0-13.573 11.003-24.576 24.576-24.576v0h98.447c13.573 0 24.576 11.003 24.576 24.576v0 98.406c0 0.012 0 0.027 0 0.041 0 13.573-11.003 24.576-24.576 24.576 0 0 0 0 0 0v0zM349.594 165.376h-49.152v49.152h49.152v-49.152zM571.105 263.823h-98.447c-13.573 0-24.576-11.003-24.576-24.576v0-98.447c0-13.573 11.003-24.576 24.576-24.576v0h98.447c13.573 0 24.576 11.003 24.576 24.576v0 98.406c0 0.012 0 0.027 0 0.041 0 13.566-10.991 24.564-24.554 24.576h-0.001zM546.529 165.376h-49.152v49.152h49.152v-49.152zM571.105 460.739h-98.447c-13.573 0-24.576-11.003-24.576-24.576v0-98.447c0-13.573 11.003-24.576 24.576-24.576v0h98.447c13.573 0 24.576 11.003 24.576 24.576v0 98.406c0 0.012 0 0.027 0 0.041 0 13.566-10.991 24.564-24.554 24.576h-0.001zM546.529 362.291h-49.152v49.152h49.152v-49.152zM768 460.739h-98.427c-13.573 0-24.576-11.003-24.576-24.576v0-98.447c0-13.573 11.003-24.576 24.576-24.576v0h98.427c13.573 0 24.576 11.003 24.576 24.576v0 98.406c0 0.012 0 0.027 0 0.041 0 13.573-11.003 24.576-24.576 24.576 0 0 0 0 0 0v0zM743.424 362.291h-49.152v49.152h49.152v-49.152zM768 263.844h-98.427c-13.573 0-24.576-11.003-24.576-24.576v0-98.468c0-13.573 11.003-24.576 24.576-24.576v0h98.427c13.573 0 24.576 11.003 24.576 24.576v0 98.406c0 0.012 0 0.027 0 0.041 0 13.573-11.003 24.576-24.576 24.576 0 0 0 0 0 0v0zM743.424 165.376h-49.152v49.152h49.152v-49.152z" />
<glyph unicode="&#xe941;" glyph-name="time-left" d="M615.437 27.319c-8.444-2.104-17.053-3.973-25.598-5.547-22.338-4.154-37.106-25.637-32.974-47.995 2.041-10.999 8.288-20.161 16.769-26.141 8.741-6.152 19.866-8.93 31.202-6.822 10.176 1.889 20.432 4.11 30.495 6.621 22.058 5.49 35.497 27.836 29.994 49.884-5.49 22.067-27.817 35.494-49.888 30zM919.854 579.088c2.884-8.69 8.389-15.785 15.342-20.687 10.31-7.262 23.802-9.705 36.676-5.448 21.585 7.167 33.28 30.443 26.139 52.017-3.253 9.835-6.863 19.701-10.709 29.307-8.444 21.11-32.389 31.387-53.509 22.943-21.099-8.439-31.38-32.391-22.93-53.507 3.231-8.074 6.258-16.362 8.99-24.625zM749.202 86.093c-7.262-4.794-14.757-9.434-22.307-13.782-19.699-11.363-26.445-36.542-15.087-56.232 3.084-5.356 7.191-9.734 11.922-13.080 12.699-8.935 29.945-10.273 44.304-2.001 8.977 5.177 17.902 10.685 26.551 16.403 18.961 12.527 24.18 38.068 11.647 57.038-12.531 18.977-38.061 24.189-57.029 11.653zM1023.608 464.115c-0.896 22.721-20.033 40.405-42.761 39.518-22.699-0.896-40.396-20.040-39.505-42.752 0.341-8.684 0.429-17.497 0.229-26.172-0.319-14.248 6.65-26.949 17.48-34.583 6.452-4.543 14.281-7.293 22.771-7.486 22.721-0.504 41.55 17.517 42.054 40.249 0.227 10.365 0.141 20.867-0.269 31.226zM913.136 194.386c-18.219 13.669-43.995 9.958-57.641-8.228-5.226-6.965-10.729-13.843-16.364-20.467-14.726-17.301-12.646-43.289 4.656-58.026 0.986-0.836 1.983-1.605 3.018-2.327 17.2-12.126 41.105-9.34 55.012 6.98 6.729 7.902 13.289 16.119 19.533 24.438 13.647 18.186 9.954 43.98-8.215 57.63zM973.647 343.194c-21.693 6.802-44.794-5.274-51.592-26.967-2.602-8.288-5.485-16.615-8.598-24.77-6.835-17.953-0.286-37.707 14.726-48.292 2.754-1.935 5.787-3.575 9.082-4.821 21.239-8.105 45.023 2.551 53.119 23.799 3.696 9.696 7.125 19.604 10.227 29.457 6.791 21.697-5.276 44.792-26.965 51.594zM435.836 21.402c-36.804 6.608-72.109 17.861-105.587 33.555-0.396 0.207-0.751 0.442-1.167 0.632-7.889 3.713-15.765 7.691-23.399 11.847-0.026 0.031-0.075 0.051-0.117 0.068-14.006 7.713-27.676 16.247-40.956 25.596-193.644 136.409-240.204 404.929-103.787 598.571 29.663 42.091 65.561 77.207 105.581 105.039 0.493 0.343 0.986 0.685 1.475 1.030 141.025 97.17 332.514 103.719 482.26 3.868l-32.162-46.47c-8.941-12.934-3.44-22.36 12.212-20.951l139.704 12.507c15.673 1.409 25.045 14.966 20.83 30.101l-37.515 135.167c-4.2 15.153-14.953 16.967-23.903 4.035l-32.237-46.58c-109.893 73.769-241.699 101.898-372.523 79.213-13.176-2.28-26.168-5.072-38.981-8.321-0.099-0.018-0.178-0.029-0.258-0.046-0.495-0.121-0.997-0.282-1.479-0.416-112.812-28.97-211.239-94.766-281.472-188.643-0.592-0.702-1.202-1.389-1.761-2.153-2.335-3.146-4.653-6.364-6.923-9.582-3.711-5.274-7.37-10.68-10.87-16.086-0.438-0.652-0.773-1.314-1.156-1.972-57.958-89.811-85.913-193.642-81.119-299.348 0.011-0.348-0.009-0.698 0-1.054 0.464-10.326 1.283-20.795 2.395-31.101 0.059-0.665 0.207-1.294 0.319-1.959 1.149-10.363 2.591-20.751 4.398-31.136 18.367-105.962 68.352-201.311 143.252-275.503 0.174-0.174 0.354-0.363 0.53-0.544 0.062-0.068 0.13-0.103 0.189-0.167 20.123-19.848 42.012-38.206 65.58-54.806 61.678-43.461 130.357-72.188 204.115-85.424 22.38-4.022 43.758 10.876 47.773 33.245 4.013 22.384-10.872 43.78-33.245 47.788zM486.739 776.864c-18.409 0-33.32-14.924-33.32-33.306v-331.825l303.48-156.882c4.884-2.529 10.115-3.72 15.261-3.72 12.054 0 23.696 6.564 29.615 18.017 8.442 16.346 2.054 36.428-14.292 44.869l-267.462 138.275v291.265c-0.002 18.382-14.896 33.306-33.282 33.306z" />
<glyph unicode="&#xe942;" glyph-name="danger" d="M1010.806 147.212l-420.028 696.584c-16.548 27.442-46.734 44.49-78.78 44.49s-62.232-17.048-78.782-44.492l-420.026-696.582c-17.102-28.364-17.608-63.9-1.322-92.74 16.29-28.84 46.982-46.756 80.102-46.756h840.056c33.12 0 63.814 17.916 80.104 46.758 16.286 28.842 15.78 64.378-1.324 92.738zM954.078 87.256c-4.484-7.938-12.934-12.872-22.052-12.872h-840.056c-9.118 0-17.568 4.932-22.050 12.87-4.484 7.94-4.344 17.724 0.362 25.53l420.030 696.584c4.556 7.554 12.866 12.248 21.688 12.248 8.82 0 17.13-4.694 21.686-12.248l420.026-696.584c4.71-7.808 4.85-17.59 0.366-25.528zM512.308 613.99c-25.36 0-45.152-13.608-45.152-37.732 0-73.604 8.658-179.372 8.658-252.978 0.002-19.174 16.704-27.214 36.496-27.214 14.844 0 35.874 8.040 35.874 27.214 0 73.604 8.658 179.372 8.658 252.978 0 24.122-20.41 37.732-44.534 37.732zM512.93 253.388c-27.214 0-47.628-21.648-47.628-47.628 0-25.36 20.412-47.628 47.628-47.628 25.36 0 47.010 22.268 47.010 47.628 0 25.98-21.652 47.628-47.010 47.628z" />
<glyph unicode="&#xe943;" glyph-name="check" d="M1001.307 388.255l-19.253 26.368c-15.904 21.764-16.114 51.27-0.628 73.453l18.834 26.577c21.764 30.972 11.719 73.871-21.764 91.868l-28.67 15.486c-23.856 12.765-36.831 39.342-32.436 65.919l5.441 32.227c6.278 37.25-21.555 71.779-59.432 73.243l-32.646 1.465c-26.995 1.046-50.224 19.462-57.758 45.411l-8.998 31.39c-10.463 36.412-50.433 55.246-85.381 40.179l-29.925-12.975c-24.903-10.673-53.572-4.395-71.779 15.904l-21.764 24.275c-25.321 28.251-69.477 27.833-94.379-0.628l-21.345-24.694c-17.788-20.299-46.457-27.205-71.36-16.951l-30.134 12.347c-34.948 14.439-74.708-5.022-84.753-41.644l-8.58-31.39c-6.906-26.368-29.716-44.992-56.711-46.457l-32.646-1.883c-37.877-2.093-65.082-37.040-58.176-74.081l5.859-32.018c4.813-26.577-7.743-53.363-31.39-66.338l-28.46-15.904c-33.064-18.415-42.69-61.525-20.299-92.077l19.253-26.368c15.904-21.764 16.114-51.27 0.628-73.453l-18.834-26.577c-21.764-30.972-11.719-73.871 21.764-91.868l28.67-15.486c23.856-12.765 36.831-39.342 32.436-65.919l-5.65-32.018c-6.278-37.25 21.555-71.779 59.432-73.243l32.646-1.465c26.995-1.046 50.224-19.462 57.758-45.411l8.998-31.39c10.463-36.412 50.433-55.246 85.381-40.179l29.925 12.975c24.903 10.673 53.572 4.395 71.779-15.695l21.764-24.275c25.321-28.251 69.477-27.833 94.379 0.628l21.345 24.694c17.788 20.299 46.457 27.205 71.36 16.951l30.134-12.347c34.948-14.439 74.708 5.022 84.753 41.644l8.58 31.39c7.115 25.949 30.134 44.574 57.13 46.248l32.646 1.883c37.877 2.093 65.082 37.040 58.176 74.081l-5.859 32.018c-4.813 26.577 7.743 53.363 31.39 66.338l28.46 15.904c32.855 17.997 42.272 61.315 20.090 91.868zM512.041 117.255c-182.481 0-330.433 147.952-330.433 330.433s147.952 330.433 330.433 330.433 330.433-147.952 330.433-330.433-147.952-330.433-330.433-330.433zM469.769 438.898l-29.297 29.507c-17.369 17.578-45.829 17.578-63.408 0.209v0c-17.578-17.369-17.578-45.829-0.209-63.408l29.297-29.507 32.646-32.646c16.951-17.16 44.574-17.16 61.734-0.209l146.487 145.65c17.578 17.369 17.578 45.829 0.209 63.408v0c-17.369 17.578-45.829 17.578-63.408 0.209l-114.051-113.213z" />
<glyph unicode="&#xe944;" d="M672 640h-320c-17.664 0-32-14.336-32-32v-640c0-17.664 14.336-32 32-32h320c17.664 0 32 14.336 32 32v640c0 17.664-14.336 32-32 32z" />
<glyph unicode="&#xe945;" d="M352 320h-320c-17.664 0-32-14.336-32-32v-320c0-17.664 14.336-32 32-32h320c17.664 0 32 14.336 32 32v320c0 17.664-14.336 32-32 32z" />
<glyph unicode="&#xe946;" d="M992 960h-320c-17.664 0-32-14.336-32-32v-960c0-17.664 14.336-32 32-32h320c17.664 0 32 14.336 32 32v960c0 17.664-14.336 32-32 32z" />
<glyph unicode="&#xe947;" glyph-name="upload" d="M994.662 459.844c-16.299 0-29.338-13.039-29.338-29.338v-266.866c0-72.584-59.11-131.477-131.477-131.477h-643.694c-72.584 0-131.477 59.11-131.477 131.477v271.212c0 16.299-13.039 29.338-29.338 29.338s-29.338-13.039-29.338-29.338v-271.212c0-104.964 85.406-190.153 190.153-190.153h643.694c104.964 0 190.153 85.406 190.153 190.153v266.866c0 16.081-13.039 29.338-29.338 29.338zM346.187 685.854l136.475 136.475v-595.233c0-16.299 13.039-29.338 29.338-29.338s29.338 13.039 29.338 29.338v595.233l136.475-136.475c5.65-5.65 13.256-8.693 20.645-8.693 7.606 0 14.995 2.825 20.645 8.693 11.518 11.518 11.518 29.99 0 41.508l-186.458 186.458c-5.433 5.433-13.039 8.693-20.645 8.693-7.823 0-15.212-3.042-20.645-8.693l-186.458-186.458c-11.518-11.518-11.518-29.99 0-41.508 11.301-11.301 29.99-11.301 41.29 0z" />
<glyph unicode="&#xe948;" glyph-name="download" d="M994.662 459.844c-16.299 0-29.338-13.039-29.338-29.338v-266.866c0-72.584-59.11-131.477-131.477-131.477h-643.694c-72.584 0-131.477 59.11-131.477 131.477v271.212c0 16.299-13.039 29.338-29.338 29.338s-29.338-13.039-29.338-29.338v-271.212c0-104.964 85.406-190.153 190.153-190.153h643.694c104.964 0 190.153 85.406 190.153 190.153v266.866c0 16.081-13.039 29.338-29.338 29.338zM491.355 206.452c5.65-5.65 13.256-8.693 20.645-8.693s14.995 2.825 20.645 8.693l186.458 186.458c11.518 11.518 11.518 29.99 0 41.508s-29.99 11.518-41.508 0l-136.258-136.475v595.233c0 16.299-13.039 29.338-29.338 29.338s-29.338-13.039-29.338-29.338v-595.233l-136.475 136.475c-11.518 11.518-29.99 11.518-41.508 0s-11.518-29.99 0-41.508l186.676-186.458z" />
</font>
</defs>
</svg>
